<?xml version="1.0" standalone="yes"?>

<svg version="1.1" viewBox="0.0 0.0 810.0 331.0" fill="none" stroke="none" stroke-linecap="square" stroke-miterlimit="10" xmlns="http://www.w3.org/2000/svg" xmlns:xlink="http://www.w3.org/1999/xlink"><clipPath id="p.0"><path d="m0 0l810.0 0l0 331.0l-810.0 0l0 -331.0z" clip-rule="nonzero"></path></clipPath><g clip-path="url(#p.0)"><path fill="#000000" fill-opacity="0.0" d="m0 0l810.24146 0l0 331.11023l-810.24146 0z" fill-rule="nonzero"></path><path fill="#cfe2f3" d="m327.93964 34.480682l0 0c0 -10.129772 8.211792 -18.341576 18.341583 -18.341576l128.10422 0c4.864502 0 9.529755 1.9324112 12.969452 5.3721237c3.4397278 3.4397125 5.3721313 8.104963 5.3721313 12.969452l0 73.3641c0 10.129776 -8.211792 18.341576 -18.341583 18.341576l-128.10422 0c-10.129791 0 -18.341583 -8.2118 -18.341583 -18.341576z" fill-rule="nonzero"></path><path stroke="#073763" stroke-width="2.0" stroke-linejoin="round" stroke-linecap="butt" d="m327.93964 34.480682l0 0c0 -10.129772 8.211792 -18.341576 18.341583 -18.341576l128.10422 0c4.864502 0 9.529755 1.9324112 12.969452 5.3721237c3.4397278 3.4397125 5.3721313 8.104963 5.3721313 12.969452l0 73.3641c0 10.129776 -8.211792 18.341576 -18.341583 18.341576l-128.10422 0c-10.129791 0 -18.341583 -8.2118 -18.341583 -18.341576z" fill-rule="nonzero"></path><path fill="#000000" d="m384.5677 42.36398q0.703125 0.703125 1.625 1.140625q0.9375 0.421875 1.96875 0.421875q1.328125 0 2.046875 -0.5625q0.734375 -0.5625 0.734375 -1.46875q0 -0.484375 -0.171875 -0.8125q-0.171875 -0.328125 -0.484375 -0.5625q-0.296875 -0.25 -0.703125 -0.4375q-0.40625 -0.1875 -0.890625 -0.390625l-1.78125 -0.78125q-0.484375 -0.1875 -0.953125 -0.453125q-0.46875 -0.265625 -0.859375 -0.640625q-0.390625 -0.390625 -0.640625 -0.90625q-0.25 -0.53125 -0.25 -1.21875q0 -0.703125 0.296875 -1.3125q0.3125 -0.609375 0.84375 -1.046875q0.546875 -0.453125 1.296875 -0.6875q0.75 -0.25 1.65625 -0.25q1.171875 0 2.15625 0.421875q0.984375 0.421875 1.671875 1.109375l-0.828125 1.03125q-0.609375 -0.546875 -1.34375 -0.859375q-0.734375 -0.328125 -1.65625 -0.328125q-1.140625 0 -1.8125 0.484375q-0.65625 0.484375 -0.65625 1.34375q0 0.453125 0.1875 0.78125q0.203125 0.3125 0.515625 0.546875q0.3125 0.234375 0.703125 0.40625q0.40625 0.171875 0.8125 0.34375l1.75 0.75q0.5625 0.234375 1.0625 0.53125q0.515625 0.296875 0.875 0.6875q0.375 0.390625 0.59375 0.90625q0.21875 0.515625 0.21875 1.203125q0 0.75 -0.3125 1.390625q-0.296875 0.640625 -0.875 1.125q-0.5625 0.484375 -1.375 0.765625q-0.8125 0.28125 -1.84375 0.28125q-1.375 0 -2.53125 -0.5q-1.140625 -0.5 -2.0 -1.34375l0.953125 -1.109375zm10.678131 -6.515625l5.859375 0l0 9.234375l-1.5625 0l0 -7.96875l-4.296875 0l0 -1.265625zm4.90625 -1.90625q-0.546875 0 -0.90625 -0.3125q-0.34375 -0.328125 -0.34375 -0.875q0 -0.546875 0.34375 -0.875q0.359375 -0.34375 0.90625 -0.34375q0.53125 0 0.890625 0.34375q0.359375 0.328125 0.359375 0.875q0 0.546875 -0.359375 0.875q-0.359375 0.3125 -0.890625 0.3125zm5.896881 6.546875q0 -1.140625 0.390625 -2.046875q0.40625 -0.90625 1.0625 -1.53125q0.65625 -0.625 1.5 -0.953125q0.84375 -0.34375 1.734375 -0.34375q0.984375 0 1.765625 0.328125q0.78125 0.3125 1.328125 0.890625q0.546875 0.5625 0.828125 1.359375q0.28125 0.796875 0.28125 1.765625q0 0.234375 -0.015625 0.484375q0 0.234375 -0.046875 0.40625l-7.21875 0q0.015625 0.734375 0.296875 1.328125q0.28125 0.59375 0.734375 1.015625q0.46875 0.40625 1.109375 0.640625q0.640625 0.21875 1.390625 0.21875q0.828125 0 1.5 -0.21875q0.671875 -0.234375 1.3125 -0.625l0.5625 1.015625q-0.6875 0.4375 -1.5625 0.765625q-0.875 0.328125 -2.0 0.328125q-1.015625 0 -1.921875 -0.328125q-0.90625 -0.34375 -1.578125 -0.953125q-0.671875 -0.625 -1.0625 -1.515625q-0.390625 -0.890625 -0.390625 -2.03125zm7.453125 -0.765625q0 -1.390625 -0.734375 -2.125q-0.71875 -0.75 -2.015625 -0.75q-0.5625 0 -1.09375 0.203125q-0.515625 0.1875 -0.9375 0.5625q-0.40625 0.359375 -0.703125 0.890625q-0.28125 0.53125 -0.375 1.21875l5.859375 0zm3.396881 -3.875l1.578125 0l2.125 5.25q0.28125 0.703125 0.53125 1.375q0.265625 0.671875 0.515625 1.34375l0.078125 0q0.25 -0.671875 0.484375 -1.34375q0.234375 -0.671875 0.515625 -1.375l2.140625 -5.25l1.5 0l-3.828125 9.234375l-1.75 0l-3.890625 -9.234375zm11.537506 4.640625q0 -1.140625 0.390625 -2.046875q0.40625 -0.90625 1.0625 -1.53125q0.65625 -0.625 1.5 -0.953125q0.84375 -0.34375 1.734375 -0.34375q0.984375 0 1.765625 0.328125q0.78125 0.3125 1.328125 0.890625q0.546875 0.5625 0.828125 1.359375q0.28125 0.796875 0.28125 1.765625q0 0.234375 -0.015625 0.484375q0 0.234375 -0.046875 0.40625l-7.21875 0q0.015625 0.734375 0.296875 1.328125q0.28125 0.59375 0.734375 1.015625q0.46875 0.40625 1.109375 0.640625q0.640625 0.21875 1.390625 0.21875q0.828125 0 1.5 -0.21875q0.671875 -0.234375 1.3125 -0.625l0.5625 1.015625q-0.6875 0.4375 -1.5625 0.765625q-0.875 0.328125 -2.0 0.328125q-1.015625 0 -1.921875 -0.328125q-0.90625 -0.34375 -1.578125 -0.953125q-0.671875 -0.625 -1.0625 -1.515625q-0.390625 -0.890625 -0.390625 -2.03125zm7.453125 -0.765625q0 -1.390625 -0.734375 -2.125q-0.71875 -0.75 -2.015625 -0.75q-0.5625 0 -1.09375 0.203125q-0.515625 0.1875 -0.9375 0.5625q-0.40625 0.359375 -0.703125 0.890625q-0.28125 0.53125 -0.375 1.21875l5.859375 0z" fill-rule="nonzero"></path><path fill="#000000" d="m378.2833 54.61398l1.75 0l1.765625 5.3125l0.640625 2.0l0.0625 0l0.609375 -2.0l1.75 -5.3125l1.75 0l0 12.468746l-1.34375 0l0 -7.015621q0 -0.375 0.015625 -0.890625q0.015625 -0.515625 0.046875 -1.03125q0.03125 -0.53125 0.046875 -1.03125q0.03125 -0.5 0.078125 -0.875l-0.0625 0l-0.8125 2.65625l-1.703125 4.8125l-0.859375 0l-1.71875 -4.8125l-0.828125 -2.65625l-0.0625 0q0.015625 0.375 0.046875 0.875q0.046875 0.5 0.078125 1.03125q0.046875 0.515625 0.0625 1.03125q0.03125 0.515625 0.03125 0.890625l0 7.015621l-1.34375 0l0 -12.468746zm11.193756 10.078121q0 -0.7812462 0.375 -1.3593712q0.375 -0.578125 1.171875 -1.0q0.8125 -0.421875 2.078125 -0.6875q1.28125 -0.265625 3.078125 -0.421875q-0.03125 -0.46875 -0.171875 -0.875q-0.125 -0.421875 -0.40625 -0.734375q-0.28125 -0.328125 -0.75 -0.515625q-0.46875 -0.1875 -1.125 -0.1875q-0.921875 0 -1.765625 0.359375q-0.828125 0.34375 -1.46875 0.75l-0.609375 -1.0625q0.34375 -0.234375 0.8125 -0.46875q0.46875 -0.234375 0.984375 -0.421875q0.515625 -0.203125 1.109375 -0.328125q0.59375 -0.125 1.203125 -0.125q1.890625 0 2.8125 1.046875q0.921875 1.03125 0.921875 2.765625l0 5.656246l-1.265625 0l-0.140625 -1.25l-0.046875 0q-0.78125 0.609375 -1.734375 1.046875q-0.9375 0.4375 -1.921875 0.4375q-0.640625 0 -1.21875 -0.1875q-0.5625 -0.1875 -1.0 -0.515625q-0.421875 -0.328125 -0.671875 -0.8125q-0.25 -0.484375 -0.25 -1.109375zm1.53125 -0.125q0 0.40625 0.171875 0.6875q0.171875 0.265625 0.4375 0.453125q0.28125 0.171875 0.640625 0.265625q0.375 0.078125 0.78125 0.078125q0.796875 0 1.5625 -0.34375q0.765625 -0.359375 1.578125 -1.015625l0 -2.4374962q-1.484375 0.109375 -2.484375 0.328125q-1.0 0.203125 -1.609375 0.5q-0.59375 0.296875 -0.84375 0.671875q-0.234375 0.3593712 -0.234375 0.8124962zm10.256256 0.28125q0.78125 0.5625 1.671875 0.90625q0.890625 0.34375 2.15625 0.34375q1.25 0 1.859375 -0.421875q0.609375 -0.421875 0.609375 -1.03125q0 -0.53125 -0.65625 -0.9374962q-0.65625 -0.421875 -2.34375 -0.84375q-0.734375 -0.171875 -1.375 -0.421875q-0.625 -0.25 -1.109375 -0.578125q-0.46875 -0.328125 -0.75 -0.71875q-0.28125 -0.40625 -0.28125 -0.90625q0 -0.546875 0.234375 -1.03125q0.25 -0.484375 0.734375 -0.828125q0.484375 -0.359375 1.21875 -0.5625q0.734375 -0.203125 1.6875 -0.203125q1.046875 0 2.03125 0.359375q0.984375 0.34375 1.671875 0.828125l-0.765625 1.0q-0.609375 -0.4375 -1.359375 -0.703125q-0.734375 -0.265625 -1.578125 -0.265625q-0.65625 0 -1.09375 0.109375q-0.4375 0.109375 -0.703125 0.296875q-0.265625 0.171875 -0.375 0.421875q-0.109375 0.234375 -0.109375 0.5q0 0.578125 0.765625 0.953125q0.78125 0.359375 2.046875 0.6875q1.875 0.46875 2.78125 1.078125q0.90625 0.609375 0.90625 1.6718712q0 0.578125 -0.265625 1.078125q-0.265625 0.484375 -0.796875 0.875q-0.515625 0.375 -1.296875 0.59375q-0.765625 0.21875 -1.75 0.21875q-1.375 0 -2.53125 -0.421875q-1.140625 -0.4375 -1.984375 -1.03125l0.75 -1.015625zm12.975006 -5.734371l-2.59375 0l0 -1.171875l2.65625 -0.09375l0.21875 -2.578125l1.28125 0l0 2.578125l4.546875 0l0 1.265625l-4.546875 0l0 4.390625q0 0.6406212 0.109375 1.1093712q0.125 0.453125 0.390625 0.78125q0.265625 0.3125 0.71875 0.484375q0.453125 0.15625 1.125 0.15625q0.65625 0 1.1875 -0.109375q0.53125 -0.109375 1.03125 -0.3125l0.34375 1.140625q-0.625 0.234375 -1.390625 0.390625q-0.75 0.171875 -1.515625 0.171875q-1.015625 0 -1.703125 -0.28125q-0.671875 -0.28125 -1.078125 -0.78125q-0.40625 -0.5 -0.59375 -1.203125q-0.1875 -0.703125 -0.1875 -1.5624962l0 -4.375zm8.600006 3.375q0 -1.140625 0.390625 -2.046875q0.40625 -0.90625 1.0625 -1.53125q0.65625 -0.625 1.5 -0.953125q0.84375 -0.34375 1.734375 -0.34375q0.984375 0 1.765625 0.328125q0.78125 0.3125 1.328125 0.890625q0.546875 0.5625 0.828125 1.359375q0.28125 0.796875 0.28125 1.765625q0 0.234375 -0.015625 0.484375q0 0.234375 -0.046875 0.40625l-7.21875 0q0.015625 0.734375 0.296875 1.3281212q0.28125 0.59375 0.734375 1.015625q0.46875 0.40625 1.109375 0.640625q0.640625 0.21875 1.390625 0.21875q0.828125 0 1.5 -0.21875q0.671875 -0.234375 1.3125 -0.625l0.5625 1.015625q-0.6875 0.4375 -1.5625 0.765625q-0.875 0.328125 -2.0 0.328125q-1.015625 0 -1.921875 -0.328125q-0.90625 -0.34375 -1.578125 -0.953125q-0.671875 -0.625 -1.0625 -1.515625q-0.390625 -0.8906212 -0.390625 -2.0312462zm7.453125 -0.765625q0 -1.390625 -0.734375 -2.125q-0.71875 -0.75 -2.015625 -0.75q-0.5625 0 -1.09375 0.203125q-0.515625 0.1875 -0.9375 0.5625q-0.40625 0.359375 -0.703125 0.890625q-0.28125 0.53125 -0.375 1.21875l5.859375 0zm5.209381 -3.875l1.28125 0l0.140625 2.1875l0.046875 0q0.734375 -1.125 1.78125 -1.765625q1.0625 -0.65625 2.34375 -0.65625q0.515625 0 0.953125 0.09375q0.4375 0.078125 0.875 0.296875l-0.359375 1.34375q-0.5 -0.171875 -0.828125 -0.25q-0.328125 -0.078125 -0.890625 -0.078125q-1.03125 0 -2.0 0.609375q-0.953125 0.59375 -1.796875 2.03125l0 5.421871l-1.546875 0l0 -9.234371z" fill-rule="nonzero"></path><path fill="#000000" d="m406.31458 98.613976l1.609375 0l4.046875 7.875l1.265625 2.546875l0.03125 0q-0.03125 -0.9375 -0.125 -1.953125q-0.078125 -1.015625 -0.078125 -2.0l0 -6.46875l1.5 0l0 12.46875l-1.625 0l-4.046875 -7.859375l-1.25 -2.546875l-0.03125 0q0.03125 0.96875 0.109375 1.953125q0.09375 0.96875 0.09375 1.9375l0 6.515625l-1.5 0l0 -12.46875z" fill-rule="nonzero"></path><path fill="#d0e0e3" d="m14.64042 218.4177l0 0c0 -10.129776 8.2118025 -18.341583 18.341576 -18.341583l128.10425 0c4.8644867 0 9.529739 1.9324188 12.969452 5.3721313c3.4397125 3.4397125 5.372116 8.104965 5.372116 12.969452l0 73.364105c0 10.129761 -8.211807 18.341553 -18.341568 18.341553l-128.10425 0c-10.129772 0 -18.341576 -8.211792 -18.341576 -18.341553z" fill-rule="nonzero"></path><path stroke="#134f5c" stroke-width="2.0" stroke-linejoin="round" stroke-linecap="butt" d="m14.64042 218.4177l0 0c0 -10.129776 8.2118025 -18.341583 18.341576 -18.341583l128.10425 0c4.8644867 0 9.529739 1.9324188 12.969452 5.3721313c3.4397125 3.4397125 5.372116 8.104965 5.372116 12.969452l0 73.364105c0 10.129761 -8.211807 18.341553 -18.341568 18.341553l-128.10425 0c-10.129772 0 -18.341576 -8.211792 -18.341576 -18.341553z" fill-rule="nonzero"></path><path fill="#000000" d="m71.26847 226.301q0.703125 0.703125 1.625 1.140625q0.9375 0.421875 1.96875 0.421875q1.328125 0 2.046875 -0.5625q0.734375 -0.5625 0.734375 -1.46875q0 -0.484375 -0.171875 -0.8125q-0.171875 -0.328125 -0.484375 -0.5625q-0.296875 -0.25 -0.703125 -0.4375q-0.40625 -0.1875 -0.890625 -0.390625l-1.78125 -0.78125q-0.484375 -0.1875 -0.953125 -0.453125q-0.46875 -0.265625 -0.859375 -0.640625q-0.390625 -0.390625 -0.640625 -0.90625q-0.25 -0.53125 -0.25 -1.21875q0 -0.703125 0.296875 -1.3125q0.3125 -0.609375 0.84375 -1.046875q0.546875 -0.453125 1.296875 -0.6875q0.75 -0.25 1.65625 -0.25q1.171875 0 2.15625 0.421875q0.984375 0.421875 1.671875 1.109375l-0.828125 1.03125q-0.609375 -0.546875 -1.34375 -0.859375q-0.734375 -0.328125 -1.65625 -0.328125q-1.140625 0 -1.8125 0.484375q-0.65625 0.484375 -0.65625 1.34375q0 0.453125 0.1875 0.78125q0.203125 0.3125 0.515625 0.546875q0.3125 0.234375 0.703125 0.40625q0.40625 0.171875 0.8125 0.34375l1.75 0.75q0.5625 0.234375 1.0625 0.53125q0.515625 0.296875 0.875 0.6875q0.375 0.390625 0.59375 0.90625q0.21875 0.515625 0.21875 1.203125q0 0.75 -0.3125 1.390625q-0.296875 0.640625 -0.875 1.125q-0.5625 0.484375 -1.375 0.765625q-0.8125 0.28125 -1.84375 0.28125q-1.375 0 -2.53125 -0.5q-1.140625 -0.5 -2.0 -1.34375l0.953125 -1.109375zm10.678131 -6.515625l5.859375 0l0 9.234375l-1.5625 0l0 -7.96875l-4.296875 0l0 -1.265625zm4.90625 -1.90625q-0.546875 0 -0.90625 -0.3125q-0.34375 -0.328125 -0.34375 -0.875q0 -0.546875 0.34375 -0.875q0.359375 -0.34375 0.90625 -0.34375q0.53125 0 0.890625 0.34375q0.359375 0.328125 0.359375 0.875q0 0.546875 -0.359375 0.875q-0.359375 0.3125 -0.890625 0.3125zm5.896881 6.546875q0 -1.140625 0.390625 -2.046875q0.40625 -0.90625 1.0625 -1.53125q0.65625 -0.625 1.5 -0.953125q0.84375 -0.34375 1.734375 -0.34375q0.984375 0 1.765625 0.328125q0.78125 0.3125 1.328125 0.890625q0.546875 0.5625 0.828125 1.359375q0.28125 0.796875 0.28125 1.765625q0 0.234375 -0.015625 0.484375q0 0.234375 -0.046875 0.40625l-7.21875 0q0.015625 0.734375 0.296875 1.328125q0.28125 0.59375 0.734375 1.015625q0.46875 0.40625 1.109375 0.640625q0.640625 0.21875 1.390625 0.21875q0.828125 0 1.5 -0.21875q0.671875 -0.234375 1.3125 -0.625l0.5625 1.015625q-0.6875 0.4375 -1.5625 0.765625q-0.875 0.328125 -2.0 0.328125q-1.015625 0 -1.921875 -0.328125q-0.90625 -0.34375 -1.578125 -0.953125q-0.671875 -0.625 -1.0625 -1.515625q-0.390625 -0.890625 -0.390625 -2.03125zm7.453125 -0.765625q0 -1.390625 -0.734375 -2.125q-0.71875 -0.75 -2.015625 -0.75q-0.5625 0 -1.09375 0.203125q-0.515625 0.1875 -0.9375 0.5625q-0.40625 0.359375 -0.703125 0.890625q-0.28125 0.53125 -0.375 1.21875l5.859375 0zm3.396881 -3.875l1.578125 0l2.125 5.25q0.28125 0.703125 0.53125 1.375q0.265625 0.671875 0.515625 1.34375l0.078125 0q0.25 -0.671875 0.484375 -1.34375q0.234375 -0.671875 0.515625 -1.375l2.140625 -5.25l1.5 0l-3.828125 9.234375l-1.75 0l-3.890625 -9.234375zm11.537506 4.640625q0 -1.140625 0.390625 -2.046875q0.40625 -0.90625 1.0625 -1.53125q0.65625 -0.625 1.5 -0.953125q0.84375 -0.34375 1.734375 -0.34375q0.984375 0 1.765625 0.328125q0.78125 0.3125 1.328125 0.890625q0.546875 0.5625 0.828125 1.359375q0.28125 0.796875 0.28125 1.765625q0 0.234375 -0.015625 0.484375q0 0.234375 -0.046875 0.40625l-7.21875 0q0.015625 0.734375 0.296875 1.328125q0.28125 0.59375 0.734375 1.015625q0.46875 0.40625 1.109375 0.640625q0.640625 0.21875 1.390625 0.21875q0.828125 0 1.5 -0.21875q0.671875 -0.234375 1.3125 -0.625l0.5625 1.015625q-0.6875 0.4375 -1.5625 0.765625q-0.875 0.328125 -2.0 0.328125q-1.015625 0 -1.921875 -0.328125q-0.90625 -0.34375 -1.578125 -0.953125q-0.671875 -0.625 -1.0625 -1.515625q-0.390625 -0.890625 -0.390625 -2.03125zm7.453125 -0.765625q0 -1.390625 -0.734375 -2.125q-0.71875 -0.75 -2.015625 -0.75q-0.5625 0 -1.09375 0.203125q-0.515625 0.1875 -0.9375 0.5625q-0.40625 0.359375 -0.703125 0.890625q-0.28125 0.53125 -0.375 1.21875l5.859375 0z" fill-rule="nonzero"></path><path fill="#000000" d="m63.640347 238.53535l1.5781212 0l1.015625 7.828125q0.03125 0.796875 0.109375 1.546875q0.09375 0.75 0.15625 1.53125l0.046875 0q0.21875 -0.78125 0.40625 -1.53125q0.203125 -0.765625 0.390625 -1.546875l1.3125 -4.59375l1.125 0l1.3125 4.59375q0.171875 0.765625 0.359375 1.53125q0.203125 0.765625 0.421875 1.546875l0.078125 0q0.046875 -0.78125 0.125 -1.53125q0.078125 -0.765625 0.140625 -1.546875l0.9375 -7.828125l1.5 0l-1.84375 12.484375l-1.734375 0l-1.4375 -5.21875q-0.125 -0.5625 -0.25 -1.125q-0.109375 -0.578125 -0.203125 -1.125l-0.046875 0q-0.125 0.546875 -0.234375 1.125q-0.109375 0.5625 -0.265625 1.125l-1.375 5.21875l-1.703125 0l-1.9218712 -12.484375zm12.146877 7.890625q0 -1.15625 0.359375 -2.0625q0.375 -0.90625 1.0 -1.53125q0.640625 -0.625 1.453125 -0.953125q0.828125 -0.328125 1.75 -0.328125q0.90625 0 1.734375 0.328125q0.828125 0.328125 1.453125 0.953125q0.625 0.625 1.0 1.53125q0.375 0.90625 0.375 2.0625q0 1.140625 -0.375 2.046875q-0.375 0.890625 -1.0 1.515625q-0.625 0.609375 -1.453125 0.9375q-0.828125 0.328125 -1.734375 0.328125q-0.921875 0 -1.75 -0.328125q-0.8125 -0.328125 -1.453125 -0.9375q-0.625 -0.625 -1.0 -1.515625q-0.359375 -0.90625 -0.359375 -2.046875zm1.609375 0q0 0.796875 0.203125 1.4375q0.21875 0.640625 0.609375 1.109375q0.390625 0.46875 0.921875 0.734375q0.546875 0.25 1.21875 0.25q0.65625 0 1.203125 -0.25q0.546875 -0.265625 0.9375 -0.734375q0.390625 -0.46875 0.59375 -1.109375q0.203125 -0.640625 0.203125 -1.4375q0 -0.796875 -0.203125 -1.453125q-0.203125 -0.65625 -0.59375 -1.125q-0.390625 -0.484375 -0.9375 -0.734375q-0.546875 -0.265625 -1.203125 -0.265625q-0.671875 0 -1.21875 0.265625q-0.53125 0.25 -0.921875 0.734375q-0.390625 0.46875 -0.609375 1.125q-0.203125 0.65625 -0.203125 1.453125zm11.225006 -4.640625l1.28125 0l0.140625 2.1875l0.046875 0q0.734375 -1.125 1.78125 -1.765625q1.0625 -0.65625 2.34375 -0.65625q0.515625 0 0.953125 0.09375q0.4375 0.078125 0.875 0.296875l-0.359375 1.34375q-0.5 -0.171875 -0.828125 -0.25q-0.328125 -0.078125 -0.890625 -0.078125q-1.03125 0 -2.0 0.609375q-0.953125 0.59375 -1.796875 2.03125l0 5.421875l-1.546875 0l0 -9.234375zm10.428131 -4.296875l1.5625 0l0 9.15625l0.0625 0l4.984375 -4.859375l1.78125 0l-3.6875 3.671875l4.1875 5.5625l-1.75 0l-3.40625 -4.609375l-2.171875 2.09375l0 2.515625l-1.5625 0l0 -13.53125zm10.490631 8.9375q0 -1.140625 0.390625 -2.046875q0.40625 -0.90625 1.0625 -1.53125q0.65625 -0.625 1.5 -0.953125q0.84375 -0.34375 1.734375 -0.34375q0.984375 0 1.765625 0.328125q0.78125 0.3125 1.328125 0.890625q0.546875 0.5625 0.828125 1.359375q0.28125 0.796875 0.28125 1.765625q0 0.234375 -0.015625 0.484375q0 0.234375 -0.046875 0.40625l-7.21875 0q0.015625 0.734375 0.296875 1.328125q0.28125 0.59375 0.734375 1.015625q0.46875 0.40625 1.109375 0.640625q0.640625 0.21875 1.390625 0.21875q0.828125 0 1.5 -0.21875q0.671875 -0.234375 1.3125 -0.625l0.5625 1.015625q-0.6875 0.4375 -1.5625 0.765625q-0.875 0.328125 -2.0 0.328125q-1.015625 0 -1.921875 -0.328125q-0.90625 -0.34375 -1.578125 -0.953125q-0.671875 -0.625 -1.0625 -1.515625q-0.390625 -0.890625 -0.390625 -2.03125zm7.453125 -0.765625q0 -1.390625 -0.734375 -2.125q-0.71875 -0.75 -2.015625 -0.75q-0.5625 0 -1.09375 0.203125q-0.515625 0.1875 -0.9375 0.5625q-0.40625 0.359375 -0.703125 0.890625q-0.28125 0.53125 -0.375 1.21875l5.859375 0zm5.209381 -3.875l1.28125 0l0.140625 2.1875l0.046875 0q0.734375 -1.125 1.78125 -1.765625q1.0625 -0.65625 2.34375 -0.65625q0.5156326 0 0.9531326 0.09375q0.4375 0.078125 0.875 0.296875l-0.359375 1.34375q-0.5 -0.171875 -0.828125 -0.25q-0.328125 -0.078125 -0.8906326 -0.078125q-1.03125 0 -2.0 0.609375q-0.953125 0.59375 -1.796875 2.03125l0 5.421875l-1.546875 0l0 -9.234375z" fill-rule="nonzero"></path><path fill="#000000" d="m67.887215 293.72287l0 1.296875l-8.171871 0l0 -1.296875l3.4375 0l0 -8.921875l-2.578125 0l0 -1.015625q0.96875 -0.140625 1.6875 -0.359375q0.71875 -0.21875 1.296875 -0.53125l1.1562462 0l0 10.828125l3.171875 0zm5.318756 -0.078125q0 -0.71875 0.4375 -1.15625q0.453125 -0.453125 1.109375 -0.453125q0.640625 0 1.078125 0.453125q0.453125 0.4375 0.453125 1.15625q0 0.734375 -0.453125 1.171875q-0.4375 0.4375 -1.078125 0.4375q-0.65625 0 -1.109375 -0.4375q-0.4375 -0.4375 -0.4375 -1.171875zm11.193756 0q0 -0.71875 0.4375 -1.15625q0.453125 -0.453125 1.109375 -0.453125q0.640625 0 1.078125 0.453125q0.453125 0.4375 0.453125 1.15625q0 0.734375 -0.453125 1.171875q-0.4375 0.4375 -1.078125 0.4375q-0.65625 0 -1.109375 -0.4375q-0.4375 -0.4375 -0.4375 -1.171875zm8.881256 -1.078125q0.296875 0.265625 0.640625 0.53125q0.34375 0.25 0.75 0.4375q0.40625 0.1875 0.90625 0.3125q0.515625 0.109375 1.125 0.109375q0.640625 0 1.203125 -0.203125q0.5625 -0.203125 0.96875 -0.5625q0.421875 -0.359375 0.65625 -0.875q0.25 -0.515625 0.25 -1.140625q0 -1.25 -0.8125 -1.953125q-0.8125 -0.703125 -2.171875 -0.703125q-0.765625 0 -1.296875 0.1875q-0.53125 0.1875 -1.171875 0.5625l-0.84375 -0.53125l0.40625 -5.84375l6.859375 0l0 1.359375l-5.46875 0l-0.328125 3.578125q0.53125 -0.21875 1.03125 -0.34375q0.5 -0.140625 1.203125 -0.140625q0.875 0 1.640625 0.234375q0.765625 0.21875 1.3125 0.6875q0.5625 0.46875 0.890625 1.1875q0.328125 0.703125 0.328125 1.6875q0 0.984375 -0.375 1.75q-0.375 0.75 -1.0 1.28125q-0.625 0.515625 -1.4375 0.796875q-0.796875 0.28125 -1.671875 0.28125q-0.828125 0 -1.484375 -0.15625q-0.640625 -0.140625 -1.171875 -0.359375q-0.515625 -0.234375 -0.953125 -0.53125q-0.421875 -0.296875 -0.765625 -0.609375l0.78125 -1.03125zm15.053131 2.6875q-2.03125 0 -3.203125 -1.640625q-1.15625 -1.65625 -1.15625 -4.6875q0 -3.0625 1.15625 -4.65625q1.171875 -1.59375 3.203125 -1.59375q2.03125 0 3.1875 1.59375q1.15625 1.59375 1.15625 4.65625q0 3.03125 -1.15625 4.6875q-1.15625 1.640625 -3.1875 1.640625zm0 -11.328125q-0.625 0 -1.15625 0.28125q-0.53125 0.28125 -0.921875 0.90625q-0.390625 0.609375 -0.609375 1.5625q-0.203125 0.9375 -0.203125 2.25q0 2.59375 0.796875 3.828125q0.8125 1.234375 2.09375 1.234375q1.265625 0 2.078125 -1.234375q0.8125 -1.234375 0.8125 -3.828125q0 -1.3125 -0.21875 -2.25q-0.203125 -0.953125 -0.59375 -1.5625q-0.390625 -0.625 -0.921875 -0.90625q-0.53125 -0.28125 -1.15625 -0.28125zm0 6.140625q-0.484375 0 -0.84375 -0.328125q-0.34375 -0.34375 -0.34375 -0.953125q0 -0.59375 0.34375 -0.921875q0.359375 -0.328125 0.84375 -0.328125q0.46875 0 0.8125 0.328125q0.359375 0.328125 0.359375 0.921875q0 0.609375 -0.359375 0.953125q-0.34375 0.328125 -0.8125 0.328125zm11.193756 5.1875q-2.03125 0 -3.203125 -1.640625q-1.15625 -1.65625 -1.15625 -4.6875q0 -3.0625 1.15625 -4.65625q1.171875 -1.59375 3.203125 -1.59375q2.03125 0 3.1875 1.59375q1.15625 1.59375 1.15625 4.65625q0 3.03125 -1.15625 4.6875q-1.15625 1.640625 -3.1875 1.640625zm0 -11.328125q-0.625 0 -1.15625 0.28125q-0.53125 0.28125 -0.921875 0.90625q-0.390625 0.609375 -0.609375 1.5625q-0.203125 0.9375 -0.203125 2.25q0 2.59375 0.796875 3.828125q0.8125 1.234375 2.09375 1.234375q1.265625 0 2.078125 -1.234375q0.8125 -1.234375 0.8125 -3.828125q0 -1.3125 -0.21875 -2.25q-0.203125 -0.953125 -0.59375 -1.5625q-0.390625 -0.625 -0.921875 -0.90625q-0.53125 -0.28125 -1.15625 -0.28125zm0 6.140625q-0.484375 0 -0.84375 -0.328125q-0.34375 -0.34375 -0.34375 -0.953125q0 -0.59375 0.34375 -0.921875q0.359375 -0.328125 0.84375 -0.328125q0.46875 0 0.8125 0.328125q0.359375 0.328125 0.359375 0.921875q0 0.609375 -0.359375 0.953125q-0.34375 0.328125 -0.8125 0.328125zm11.193764 5.1875q-2.03125 0 -3.2031326 -1.640625q-1.15625 -1.65625 -1.15625 -4.6875q0 -3.0625 1.15625 -4.65625q1.1718826 -1.59375 3.2031326 -1.59375q2.03125 0 3.1875 1.59375q1.15625 1.59375 1.15625 4.65625q0 3.03125 -1.15625 4.6875q-1.15625 1.640625 -3.1875 1.640625zm0 -11.328125q-0.625 0 -1.15625 0.28125q-0.53125 0.28125 -0.921875 0.90625q-0.390625 0.609375 -0.609375 1.5625q-0.20313263 0.9375 -0.20313263 2.25q0 2.59375 0.7968826 3.828125q0.8125 1.234375 2.09375 1.234375q1.265625 0 2.078125 -1.234375q0.8125 -1.234375 0.8125 -3.828125q0 -1.3125 -0.21875 -2.25q-0.203125 -0.953125 -0.59375 -1.5625q-0.390625 -0.625 -0.921875 -0.90625q-0.53125 -0.28125 -1.15625 -0.28125zm0 6.140625q-0.484375 0 -0.84375 -0.328125q-0.34375 -0.34375 -0.34375 -0.953125q0 -0.59375 0.34375 -0.921875q0.359375 -0.328125 0.84375 -0.328125q0.46875 0 0.8125 0.328125q0.359375 0.328125 0.359375 0.921875q0 0.609375 -0.359375 0.953125q-0.34375 0.328125 -0.8125 0.328125z" fill-rule="nonzero"></path><path fill="#d0e0e3" d="m259.8819 218.4177l0 0c0 -10.129776 8.211792 -18.341583 18.341553 -18.341583l128.10425 0c4.864502 0 9.529755 1.9324188 12.969452 5.3721313c3.4397278 3.4397125 5.3721313 8.104965 5.3721313 12.969452l0 73.364105c0 10.129761 -8.211792 18.341553 -18.341583 18.341553l-128.10425 0c-10.129761 0 -18.341553 -8.211792 -18.341553 -18.341553z" fill-rule="nonzero"></path><path stroke="#134f5c" stroke-width="2.0" stroke-linejoin="round" stroke-linecap="butt" d="m259.8819 218.4177l0 0c0 -10.129776 8.211792 -18.341583 18.341553 -18.341583l128.10425 0c4.864502 0 9.529755 1.9324188 12.969452 5.3721313c3.4397278 3.4397125 5.3721313 8.104965 5.3721313 12.969452l0 73.364105c0 10.129761 -8.211792 18.341553 -18.341583 18.341553l-128.10425 0c-10.129761 0 -18.341553 -8.211792 -18.341553 -18.341553z" fill-rule="nonzero"></path><path fill="#000000" d="m316.50995 226.301q0.703125 0.703125 1.625 1.140625q0.9375 0.421875 1.96875 0.421875q1.328125 0 2.046875 -0.5625q0.734375 -0.5625 0.734375 -1.46875q0 -0.484375 -0.171875 -0.8125q-0.171875 -0.328125 -0.484375 -0.5625q-0.296875 -0.25 -0.703125 -0.4375q-0.40625 -0.1875 -0.890625 -0.390625l-1.78125 -0.78125q-0.484375 -0.1875 -0.953125 -0.453125q-0.46875 -0.265625 -0.859375 -0.640625q-0.390625 -0.390625 -0.640625 -0.90625q-0.25 -0.53125 -0.25 -1.21875q0 -0.703125 0.296875 -1.3125q0.3125 -0.609375 0.84375 -1.046875q0.546875 -0.453125 1.296875 -0.6875q0.75 -0.25 1.65625 -0.25q1.171875 0 2.15625 0.421875q0.984375 0.421875 1.671875 1.109375l-0.828125 1.03125q-0.609375 -0.546875 -1.34375 -0.859375q-0.734375 -0.328125 -1.65625 -0.328125q-1.140625 0 -1.8125 0.484375q-0.65625 0.484375 -0.65625 1.34375q0 0.453125 0.1875 0.78125q0.203125 0.3125 0.515625 0.546875q0.3125 0.234375 0.703125 0.40625q0.40625 0.171875 0.8125 0.34375l1.75 0.75q0.5625 0.234375 1.0625 0.53125q0.515625 0.296875 0.875 0.6875q0.375 0.390625 0.59375 0.90625q0.21875 0.515625 0.21875 1.203125q0 0.75 -0.3125 1.390625q-0.296875 0.640625 -0.875 1.125q-0.5625 0.484375 -1.375 0.765625q-0.8125 0.28125 -1.84375 0.28125q-1.375 0 -2.53125 -0.5q-1.140625 -0.5 -2.0 -1.34375l0.953125 -1.109375zm10.678131 -6.515625l5.859375 0l0 9.234375l-1.5625 0l0 -7.96875l-4.296875 0l0 -1.265625zm4.90625 -1.90625q-0.546875 0 -0.90625 -0.3125q-0.34375 -0.328125 -0.34375 -0.875q0 -0.546875 0.34375 -0.875q0.359375 -0.34375 0.90625 -0.34375q0.53125 0 0.890625 0.34375q0.359375 0.328125 0.359375 0.875q0 0.546875 -0.359375 0.875q-0.359375 0.3125 -0.890625 0.3125zm5.896881 6.546875q0 -1.140625 0.390625 -2.046875q0.40625 -0.90625 1.0625 -1.53125q0.65625 -0.625 1.5 -0.953125q0.84375 -0.34375 1.734375 -0.34375q0.984375 0 1.765625 0.328125q0.78125 0.3125 1.328125 0.890625q0.546875 0.5625 0.828125 1.359375q0.28125 0.796875 0.28125 1.765625q0 0.234375 -0.015625 0.484375q0 0.234375 -0.046875 0.40625l-7.21875 0q0.015625 0.734375 0.296875 1.328125q0.28125 0.59375 0.734375 1.015625q0.46875 0.40625 1.109375 0.640625q0.640625 0.21875 1.390625 0.21875q0.828125 0 1.5 -0.21875q0.671875 -0.234375 1.3125 -0.625l0.5625 1.015625q-0.6875 0.4375 -1.5625 0.765625q-0.875 0.328125 -2.0 0.328125q-1.015625 0 -1.921875 -0.328125q-0.90625 -0.34375 -1.578125 -0.953125q-0.671875 -0.625 -1.0625 -1.515625q-0.390625 -0.890625 -0.390625 -2.03125zm7.453125 -0.765625q0 -1.390625 -0.734375 -2.125q-0.71875 -0.75 -2.015625 -0.75q-0.5625 0 -1.09375 0.203125q-0.515625 0.1875 -0.9375 0.5625q-0.40625 0.359375 -0.703125 0.890625q-0.28125 0.53125 -0.375 1.21875l5.859375 0zm3.396881 -3.875l1.578125 0l2.125 5.25q0.28125 0.703125 0.53125 1.375q0.265625 0.671875 0.515625 1.34375l0.078125 0q0.25 -0.671875 0.484375 -1.34375q0.234375 -0.671875 0.515625 -1.375l2.140625 -5.25l1.5 0l-3.828125 9.234375l-1.75 0l-3.890625 -9.234375zm11.537506 4.640625q0 -1.140625 0.390625 -2.046875q0.40625 -0.90625 1.0625 -1.53125q0.65625 -0.625 1.5 -0.953125q0.84375 -0.34375 1.734375 -0.34375q0.984375 0 1.765625 0.328125q0.78125 0.3125 1.328125 0.890625q0.546875 0.5625 0.828125 1.359375q0.28125 0.796875 0.28125 1.765625q0 0.234375 -0.015625 0.484375q0 0.234375 -0.046875 0.40625l-7.21875 0q0.015625 0.734375 0.296875 1.328125q0.28125 0.59375 0.734375 1.015625q0.46875 0.40625 1.109375 0.640625q0.640625 0.21875 1.390625 0.21875q0.828125 0 1.5 -0.21875q0.671875 -0.234375 1.3125 -0.625l0.5625 1.015625q-0.6875 0.4375 -1.5625 0.765625q-0.875 0.328125 -2.0 0.328125q-1.015625 0 -1.921875 -0.328125q-0.90625 -0.34375 -1.578125 -0.953125q-0.671875 -0.625 -1.0625 -1.515625q-0.390625 -0.890625 -0.390625 -2.03125zm7.453125 -0.765625q0 -1.390625 -0.734375 -2.125q-0.71875 -0.75 -2.015625 -0.75q-0.5625 0 -1.09375 0.203125q-0.515625 0.1875 -0.9375 0.5625q-0.40625 0.359375 -0.703125 0.890625q-0.28125 0.53125 -0.375 1.21875l5.859375 0z" fill-rule="nonzero"></path><path fill="#000000" d="m308.8818 238.53535l1.578125 0l1.015625 7.828125q0.03125 0.796875 0.109375 1.546875q0.09375 0.75 0.15625 1.53125l0.046875 0q0.21875 -0.78125 0.40625 -1.53125q0.203125 -0.765625 0.390625 -1.546875l1.3125 -4.59375l1.125 0l1.3125 4.59375q0.171875 0.765625 0.359375 1.53125q0.203125 0.765625 0.421875 1.546875l0.078125 0q0.046875 -0.78125 0.125 -1.53125q0.078125 -0.765625 0.140625 -1.546875l0.9375 -7.828125l1.5 0l-1.84375 12.484375l-1.734375 0l-1.4375 -5.21875q-0.125 -0.5625 -0.25 -1.125q-0.109375 -0.578125 -0.203125 -1.125l-0.046875 0q-0.125 0.546875 -0.234375 1.125q-0.109375 0.5625 -0.265625 1.125l-1.375 5.21875l-1.703125 0l-1.921875 -12.484375zm12.146881 7.890625q0 -1.15625 0.359375 -2.0625q0.375 -0.90625 1.0 -1.53125q0.640625 -0.625 1.453125 -0.953125q0.828125 -0.328125 1.75 -0.328125q0.90625 0 1.734375 0.328125q0.828125 0.328125 1.453125 0.953125q0.625 0.625 1.0 1.53125q0.375 0.90625 0.375 2.0625q0 1.140625 -0.375 2.046875q-0.375 0.890625 -1.0 1.515625q-0.625 0.609375 -1.453125 0.9375q-0.828125 0.328125 -1.734375 0.328125q-0.921875 0 -1.75 -0.328125q-0.8125 -0.328125 -1.453125 -0.9375q-0.625 -0.625 -1.0 -1.515625q-0.359375 -0.90625 -0.359375 -2.046875zm1.609375 0q0 0.796875 0.203125 1.4375q0.21875 0.640625 0.609375 1.109375q0.390625 0.46875 0.921875 0.734375q0.546875 0.25 1.21875 0.25q0.65625 0 1.203125 -0.25q0.546875 -0.265625 0.9375 -0.734375q0.390625 -0.46875 0.59375 -1.109375q0.203125 -0.640625 0.203125 -1.4375q0 -0.796875 -0.203125 -1.453125q-0.203125 -0.65625 -0.59375 -1.125q-0.390625 -0.484375 -0.9375 -0.734375q-0.546875 -0.265625 -1.203125 -0.265625q-0.671875 0 -1.21875 0.265625q-0.53125 0.25 -0.921875 0.734375q-0.390625 0.46875 -0.609375 1.125q-0.203125 0.65625 -0.203125 1.453125zm11.225006 -4.640625l1.28125 0l0.140625 2.1875l0.046875 0q0.734375 -1.125 1.78125 -1.765625q1.0625 -0.65625 2.34375 -0.65625q0.515625 0 0.953125 0.09375q0.4375 0.078125 0.875 0.296875l-0.359375 1.34375q-0.5 -0.171875 -0.828125 -0.25q-0.328125 -0.078125 -0.890625 -0.078125q-1.03125 0 -2.0 0.609375q-0.953125 0.59375 -1.796875 2.03125l0 5.421875l-1.546875 0l0 -9.234375zm10.428131 -4.296875l1.5625 0l0 9.15625l0.0625 0l4.984375 -4.859375l1.78125 0l-3.6875 3.671875l4.1875 5.5625l-1.75 0l-3.40625 -4.609375l-2.171875 2.09375l0 2.515625l-1.5625 0l0 -13.53125zm10.490631 8.9375q0 -1.140625 0.390625 -2.046875q0.40625 -0.90625 1.0625 -1.53125q0.65625 -0.625 1.5 -0.953125q0.84375 -0.34375 1.734375 -0.34375q0.984375 0 1.765625 0.328125q0.78125 0.3125 1.328125 0.890625q0.546875 0.5625 0.828125 1.359375q0.28125 0.796875 0.28125 1.765625q0 0.234375 -0.015625 0.484375q0 0.234375 -0.046875 0.40625l-7.21875 0q0.015625 0.734375 0.296875 1.328125q0.28125 0.59375 0.734375 1.015625q0.46875 0.40625 1.109375 0.640625q0.640625 0.21875 1.390625 0.21875q0.828125 0 1.5 -0.21875q0.671875 -0.234375 1.3125 -0.625l0.5625 1.015625q-0.6875 0.4375 -1.5625 0.765625q-0.875 0.328125 -2.0 0.328125q-1.015625 0 -1.921875 -0.328125q-0.90625 -0.34375 -1.578125 -0.953125q-0.671875 -0.625 -1.0625 -1.515625q-0.390625 -0.890625 -0.390625 -2.03125zm7.453125 -0.765625q0 -1.390625 -0.734375 -2.125q-0.71875 -0.75 -2.015625 -0.75q-0.5625 0 -1.09375 0.203125q-0.515625 0.1875 -0.9375 0.5625q-0.40625 0.359375 -0.703125 0.890625q-0.28125 0.53125 -0.375 1.21875l5.859375 0zm5.209381 -3.875l1.28125 0l0.140625 2.1875l0.046875 0q0.734375 -1.125 1.78125 -1.765625q1.0625 -0.65625 2.34375 -0.65625q0.515625 0 0.953125 0.09375q0.4375 0.078125 0.875 0.296875l-0.359375 1.34375q-0.5 -0.171875 -0.828125 -0.25q-0.328125 -0.078125 -0.890625 -0.078125q-1.03125 0 -2.0 0.609375q-0.953125 0.59375 -1.796875 2.03125l0 5.421875l-1.546875 0l0 -9.234375z" fill-rule="nonzero"></path><path fill="#000000" d="m282.55368 292.56662q0.296875 0.265625 0.640625 0.53125q0.34375 0.25 0.75 0.4375q0.40625 0.1875 0.90625 0.3125q0.515625 0.109375 1.125 0.109375q0.640625 0 1.203125 -0.203125q0.5625 -0.203125 0.96875 -0.5625q0.421875 -0.359375 0.65625 -0.875q0.25 -0.515625 0.25 -1.140625q0 -1.25 -0.8125 -1.953125q-0.8125 -0.703125 -2.171875 -0.703125q-0.765625 0 -1.296875 0.1875q-0.53125 0.1875 -1.171875 0.5625l-0.84375 -0.53125l0.40625 -5.84375l6.859375 0l0 1.359375l-5.46875 0l-0.328125 3.578125q0.53125 -0.21875 1.03125 -0.34375q0.5 -0.140625 1.203125 -0.140625q0.875 0 1.640625 0.234375q0.765625 0.21875 1.3125 0.6875q0.5625 0.46875 0.890625 1.1875q0.328125 0.703125 0.328125 1.6875q0 0.984375 -0.375 1.75q-0.375 0.75 -1.0 1.28125q-0.625 0.515625 -1.4375 0.796875q-0.796875 0.28125 -1.671875 0.28125q-0.828125 0 -1.484375 -0.15625q-0.640625 -0.140625 -1.171875 -0.359375q-0.515625 -0.234375 -0.953125 -0.53125q-0.421875 -0.296875 -0.765625 -0.609375l0.78125 -1.03125zm15.053131 2.6875q-2.03125 0 -3.203125 -1.640625q-1.15625 -1.65625 -1.15625 -4.6875q0 -3.0625 1.15625 -4.65625q1.171875 -1.59375 3.203125 -1.59375q2.03125 0 3.1875 1.59375q1.15625 1.59375 1.15625 4.65625q0 3.03125 -1.15625 4.6875q-1.15625 1.640625 -3.1875 1.640625zm0 -11.328125q-0.625 0 -1.15625 0.28125q-0.53125 0.28125 -0.921875 0.90625q-0.390625 0.609375 -0.609375 1.5625q-0.203125 0.9375 -0.203125 2.25q0 2.59375 0.796875 3.828125q0.8125 1.234375 2.09375 1.234375q1.265625 0 2.078125 -1.234375q0.8125 -1.234375 0.8125 -3.828125q0 -1.3125 -0.21875 -2.25q-0.203125 -0.953125 -0.59375 -1.5625q-0.390625 -0.625 -0.921875 -0.90625q-0.53125 -0.28125 -1.15625 -0.28125zm0 6.140625q-0.484375 0 -0.84375 -0.328125q-0.34375 -0.34375 -0.34375 -0.953125q0 -0.59375 0.34375 -0.921875q0.359375 -0.328125 0.84375 -0.328125q0.46875 0 0.8125 0.328125q0.359375 0.328125 0.359375 0.921875q0 0.609375 -0.359375 0.953125q-0.34375 0.328125 -0.8125 0.328125zm11.193756 5.1875q-2.03125 0 -3.203125 -1.640625q-1.15625 -1.65625 -1.15625 -4.6875q0 -3.0625 1.15625 -4.65625q1.171875 -1.59375 3.203125 -1.59375q2.03125 0 3.1875 1.59375q1.15625 1.59375 1.15625 4.65625q0 3.03125 -1.15625 4.6875q-1.15625 1.640625 -3.1875 1.640625zm0 -11.328125q-0.625 0 -1.15625 0.28125q-0.53125 0.28125 -0.921875 0.90625q-0.390625 0.609375 -0.609375 1.5625q-0.203125 0.9375 -0.203125 2.25q0 2.59375 0.796875 3.828125q0.8125 1.234375 2.09375 1.234375q1.265625 0 2.078125 -1.234375q0.8125 -1.234375 0.8125 -3.828125q0 -1.3125 -0.21875 -2.25q-0.203125 -0.953125 -0.59375 -1.5625q-0.390625 -0.625 -0.921875 -0.90625q-0.53125 -0.28125 -1.15625 -0.28125zm0 6.140625q-0.484375 0 -0.84375 -0.328125q-0.34375 -0.34375 -0.34375 -0.953125q0 -0.59375 0.34375 -0.921875q0.359375 -0.328125 0.84375 -0.328125q0.46875 0 0.8125 0.328125q0.359375 0.328125 0.359375 0.921875q0 0.609375 -0.359375 0.953125q-0.34375 0.328125 -0.8125 0.328125zm15.521881 3.65625l0 1.296875l-8.171875 0l0 -1.296875l3.4375 0l0 -8.921875l-2.578125 0l0 -1.015625q0.96875 -0.140625 1.6875 -0.359375q0.71875 -0.21875 1.296875 -0.53125l1.15625 0l0 10.828125l3.171875 0zm5.318756 -0.078125q0 -0.71875 0.4375 -1.15625q0.453125 -0.453125 1.109375 -0.453125q0.640625 0 1.078125 0.453125q0.453125 0.4375 0.453125 1.15625q0 0.734375 -0.453125 1.171875q-0.4375 0.4375 -1.078125 0.4375q-0.65625 0 -1.109375 -0.4375q-0.4375 -0.4375 -0.4375 -1.171875zm11.193756 0q0 -0.71875 0.4375 -1.15625q0.453125 -0.453125 1.109375 -0.453125q0.640625 0 1.078125 0.453125q0.453125 0.4375 0.453125 1.15625q0 0.734375 -0.453125 1.171875q-0.4375 0.4375 -1.078125 0.4375q-0.65625 0 -1.109375 -0.4375q-0.4375 -0.4375 -0.4375 -1.171875zm17.068756 0.078125l0 1.296875l-8.171875 0l0 -1.296875l3.4375 0l0 -8.921875l-2.578125 0l0 -1.015625q0.96875 -0.140625 1.6875 -0.359375q0.71875 -0.21875 1.296875 -0.53125l1.15625 0l0 10.828125l3.171875 0zm6.865631 1.53125q-2.03125 0 -3.203125 -1.640625q-1.15625 -1.65625 -1.15625 -4.6875q0 -3.0625 1.15625 -4.65625q1.171875 -1.59375 3.203125 -1.59375q2.03125 0 3.1875 1.59375q1.15625 1.59375 1.15625 4.65625q0 3.03125 -1.15625 4.6875q-1.15625 1.640625 -3.1875 1.640625zm0 -11.328125q-0.625 0 -1.15625 0.28125q-0.53125 0.28125 -0.921875 0.90625q-0.390625 0.609375 -0.609375 1.5625q-0.203125 0.9375 -0.203125 2.25q0 2.59375 0.796875 3.828125q0.8125 1.234375 2.09375 1.234375q1.265625 0 2.078125 -1.234375q0.8125 -1.234375 0.8125 -3.828125q0 -1.3125 -0.21875 -2.25q-0.203125 -0.953125 -0.59375 -1.5625q-0.390625 -0.625 -0.921875 -0.90625q-0.53125 -0.28125 -1.15625 -0.28125zm0 6.140625q-0.484375 0 -0.84375 -0.328125q-0.34375 -0.34375 -0.34375 -0.953125q0 -0.59375 0.34375 -0.921875q0.359375 -0.328125 0.84375 -0.328125q0.46875 0 0.8125 0.328125q0.359375 0.328125 0.359375 0.921875q0 0.609375 -0.359375 0.953125q-0.34375 0.328125 -0.8125 0.328125zm11.193756 5.1875q-2.03125 0 -3.203125 -1.640625q-1.15625 -1.65625 -1.15625 -4.6875q0 -3.0625 1.15625 -4.65625q1.171875 -1.59375 3.203125 -1.59375q2.03125 0 3.1875 1.59375q1.15625 1.59375 1.15625 4.65625q0 3.03125 -1.15625 4.6875q-1.15625 1.640625 -3.1875 1.640625zm0 -11.328125q-0.625 0 -1.15625 0.28125q-0.53125 0.28125 -0.921875 0.90625q-0.390625 0.609375 -0.609375 1.5625q-0.203125 0.9375 -0.203125 2.25q0 2.59375 0.796875 3.828125q0.8125 1.234375 2.09375 1.234375q1.265625 0 2.078125 -1.234375q0.8125 -1.234375 0.8125 -3.828125q0 -1.3125 -0.21875 -2.25q-0.203125 -0.953125 -0.59375 -1.5625q-0.390625 -0.625 -0.921875 -0.90625q-0.53125 -0.28125 -1.15625 -0.28125zm0 6.140625q-0.484375 0 -0.84375 -0.328125q-0.34375 -0.34375 -0.34375 -0.953125q0 -0.59375 0.34375 -0.921875q0.359375 -0.328125 0.84375 -0.328125q0.46875 0 0.8125 0.328125q0.359375 0.328125 0.359375 0.921875q0 0.609375 -0.359375 0.953125q-0.34375 0.328125 -0.8125 0.328125zm11.193756 5.1875q-2.03125 0 -3.203125 -1.640625q-1.15625 -1.65625 -1.15625 -4.6875q0 -3.0625 1.15625 -4.65625q1.171875 -1.59375 3.203125 -1.59375q2.03125 0 3.1875 1.59375q1.15625 1.59375 1.15625 4.65625q0 3.03125 -1.15625 4.6875q-1.15625 1.640625 -3.1875 1.640625zm0 -11.328125q-0.625 0 -1.15625 0.28125q-0.53125 0.28125 -0.921875 0.90625q-0.390625 0.609375 -0.609375 1.5625q-0.203125 0.9375 -0.203125 2.25q0 2.59375 0.796875 3.828125q0.8125 1.234375 2.09375 1.234375q1.265625 0 2.078125 -1.234375q0.8125 -1.234375 0.8125 -3.828125q0 -1.3125 -0.21875 -2.25q-0.203125 -0.953125 -0.59375 -1.5625q-0.390625 -0.625 -0.921875 -0.90625q-0.53125 -0.28125 -1.15625 -0.28125zm0 6.140625q-0.484375 0 -0.84375 -0.328125q-0.34375 -0.34375 -0.34375 -0.953125q0 -0.59375 0.34375 -0.921875q0.359375 -0.328125 0.84375 -0.328125q0.46875 0 0.8125 0.328125q0.359375 0.328125 0.359375 0.921875q0 0.609375 -0.359375 0.953125q-0.34375 0.328125 -0.8125 0.328125zm11.193756 5.1875q-2.03125 0 -3.203125 -1.640625q-1.15625 -1.65625 -1.15625 -4.6875q0 -3.0625 1.15625 -4.65625q1.171875 -1.59375 3.203125 -1.59375q2.03125 0 3.1875 1.59375q1.15625 1.59375 1.15625 4.65625q0 3.03125 -1.15625 4.6875q-1.15625 1.640625 -3.1875 1.640625zm0 -11.328125q-0.625 0 -1.15625 0.28125q-0.53125 0.28125 -0.921875 0.90625q-0.390625 0.609375 -0.609375 1.5625q-0.203125 0.9375 -0.203125 2.25q0 2.59375 0.796875 3.828125q0.8125 1.234375 2.09375 1.234375q1.265625 0 2.078125 -1.234375q0.8125 -1.234375 0.8125 -3.828125q0 -1.3125 -0.21875 -2.25q-0.203125 -0.953125 -0.59375 -1.5625q-0.390625 -0.625 -0.921875 -0.90625q-0.53125 -0.28125 -1.15625 -0.28125zm0 6.140625q-0.484375 0 -0.84375 -0.328125q-0.34375 -0.34375 -0.34375 -0.953125q0 -0.59375 0.34375 -0.921875q0.359375 -0.328125 0.84375 -0.328125q0.46875 0 0.8125 0.328125q0.359375 0.328125 0.359375 0.921875q0 0.609375 -0.359375 0.953125q-0.34375 0.328125 -0.8125 0.328125z" fill-rule="nonzero"></path><path fill="#d0e0e3" d="m627.7428 218.4177l0 0c0 -10.129776 8.211792 -18.341583 18.341553 -18.341583l128.10425 0c4.864502 0 9.529724 1.9324188 12.969482 5.3721313c3.4396973 3.4397125 5.3720703 8.104965 5.3720703 12.969452l0 73.364105c0 10.129761 -8.211792 18.341553 -18.341553 18.341553l-128.10425 0c-10.129761 0 -18.341553 -8.211792 -18.341553 -18.341553z" fill-rule="nonzero"></path><path stroke="#134f5c" stroke-width="2.0" stroke-linejoin="round" stroke-linecap="butt" d="m627.7428 218.4177l0 0c0 -10.129776 8.211792 -18.341583 18.341553 -18.341583l128.10425 0c4.864502 0 9.529724 1.9324188 12.969482 5.3721313c3.4396973 3.4397125 5.3720703 8.104965 5.3720703 12.969452l0 73.364105c0 10.129761 -8.211792 18.341553 -18.341553 18.341553l-128.10425 0c-10.129761 0 -18.341553 -8.211792 -18.341553 -18.341553z" fill-rule="nonzero"></path><path fill="#000000" d="m684.37085 226.301q0.703125 0.703125 1.625 1.140625q0.9375 0.421875 1.96875 0.421875q1.328125 0 2.046875 -0.5625q0.734375 -0.5625 0.734375 -1.46875q0 -0.484375 -0.171875 -0.8125q-0.171875 -0.328125 -0.484375 -0.5625q-0.296875 -0.25 -0.703125 -0.4375q-0.40625 -0.1875 -0.890625 -0.390625l-1.78125 -0.78125q-0.484375 -0.1875 -0.953125 -0.453125q-0.46875 -0.265625 -0.859375 -0.640625q-0.390625 -0.390625 -0.640625 -0.90625q-0.25 -0.53125 -0.25 -1.21875q0 -0.703125 0.296875 -1.3125q0.3125 -0.609375 0.84375 -1.046875q0.546875 -0.453125 1.296875 -0.6875q0.75 -0.25 1.65625 -0.25q1.171875 0 2.15625 0.421875q0.984375 0.421875 1.671875 1.109375l-0.828125 1.03125q-0.609375 -0.546875 -1.34375 -0.859375q-0.734375 -0.328125 -1.65625 -0.328125q-1.140625 0 -1.8125 0.484375q-0.65625 0.484375 -0.65625 1.34375q0 0.453125 0.1875 0.78125q0.203125 0.3125 0.515625 0.546875q0.3125 0.234375 0.703125 0.40625q0.40625 0.171875 0.8125 0.34375l1.75 0.75q0.5625 0.234375 1.0625 0.53125q0.515625 0.296875 0.875 0.6875q0.375 0.390625 0.59375 0.90625q0.21875 0.515625 0.21875 1.203125q0 0.75 -0.3125 1.390625q-0.296875 0.640625 -0.875 1.125q-0.5625 0.484375 -1.375 0.765625q-0.8125 0.28125 -1.84375 0.28125q-1.375 0 -2.53125 -0.5q-1.140625 -0.5 -2.0 -1.34375l0.953125 -1.109375zm10.678101 -6.515625l5.859375 0l0 9.234375l-1.5625 0l0 -7.96875l-4.296875 0l0 -1.265625zm4.90625 -1.90625q-0.546875 0 -0.90625 -0.3125q-0.34375 -0.328125 -0.34375 -0.875q0 -0.546875 0.34375 -0.875q0.359375 -0.34375 0.90625 -0.34375q0.53125 0 0.890625 0.34375q0.359375 0.328125 0.359375 0.875q0 0.546875 -0.359375 0.875q-0.359375 0.3125 -0.890625 0.3125zm5.8969116 6.546875q0 -1.140625 0.390625 -2.046875q0.40625 -0.90625 1.0625 -1.53125q0.65625 -0.625 1.5 -0.953125q0.84375 -0.34375 1.734375 -0.34375q0.984375 0 1.765625 0.328125q0.78125 0.3125 1.328125 0.890625q0.546875 0.5625 0.828125 1.359375q0.28125 0.796875 0.28125 1.765625q0 0.234375 -0.015625 0.484375q0 0.234375 -0.046875 0.40625l-7.21875 0q0.015625 0.734375 0.296875 1.328125q0.28125 0.59375 0.734375 1.015625q0.46875 0.40625 1.109375 0.640625q0.640625 0.21875 1.390625 0.21875q0.828125 0 1.5 -0.21875q0.671875 -0.234375 1.3125 -0.625l0.5625 1.015625q-0.6875 0.4375 -1.5625 0.765625q-0.875 0.328125 -2.0 0.328125q-1.015625 0 -1.921875 -0.328125q-0.90625 -0.34375 -1.578125 -0.953125q-0.671875 -0.625 -1.0625 -1.515625q-0.390625 -0.890625 -0.390625 -2.03125zm7.453125 -0.765625q0 -1.390625 -0.734375 -2.125q-0.71875 -0.75 -2.015625 -0.75q-0.5625 0 -1.09375 0.203125q-0.515625 0.1875 -0.9375 0.5625q-0.40625 0.359375 -0.703125 0.890625q-0.28125 0.53125 -0.375 1.21875l5.859375 0zm3.3968506 -3.875l1.578125 0l2.125 5.25q0.28125 0.703125 0.53125 1.375q0.265625 0.671875 0.515625 1.34375l0.078125 0q0.25 -0.671875 0.484375 -1.34375q0.234375 -0.671875 0.515625 -1.375l2.140625 -5.25l1.5 0l-3.828125 9.234375l-1.75 0l-3.890625 -9.234375zm11.537537 4.640625q0 -1.140625 0.390625 -2.046875q0.40625 -0.90625 1.0625 -1.53125q0.65625 -0.625 1.5 -0.953125q0.84375 -0.34375 1.734375 -0.34375q0.984375 0 1.765625 0.328125q0.78125 0.3125 1.328125 0.890625q0.546875 0.5625 0.828125 1.359375q0.28125 0.796875 0.28125 1.765625q0 0.234375 -0.015625 0.484375q0 0.234375 -0.046875 0.40625l-7.21875 0q0.015625 0.734375 0.296875 1.328125q0.28125 0.59375 0.734375 1.015625q0.46875 0.40625 1.109375 0.640625q0.640625 0.21875 1.390625 0.21875q0.828125 0 1.5 -0.21875q0.671875 -0.234375 1.3125 -0.625l0.5625 1.015625q-0.6875 0.4375 -1.5625 0.765625q-0.875 0.328125 -2.0 0.328125q-1.015625 0 -1.921875 -0.328125q-0.90625 -0.34375 -1.578125 -0.953125q-0.671875 -0.625 -1.0625 -1.515625q-0.390625 -0.890625 -0.390625 -2.03125zm7.453125 -0.765625q0 -1.390625 -0.734375 -2.125q-0.71875 -0.75 -2.015625 -0.75q-0.5625 0 -1.09375 0.203125q-0.515625 0.1875 -0.9375 0.5625q-0.40625 0.359375 -0.703125 0.890625q-0.28125 0.53125 -0.375 1.21875l5.859375 0z" fill-rule="nonzero"></path><path fill="#000000" d="m676.74274 238.53535l1.578125 0l1.015625 7.828125q0.03125 0.796875 0.109375 1.546875q0.09375 0.75 0.15625 1.53125l0.046875 0q0.21875 -0.78125 0.40625 -1.53125q0.203125 -0.765625 0.390625 -1.546875l1.3125 -4.59375l1.125 0l1.3125 4.59375q0.171875 0.765625 0.359375 1.53125q0.203125 0.765625 0.421875 1.546875l0.078125 0q0.046875 -0.78125 0.125 -1.53125q0.078125 -0.765625 0.140625 -1.546875l0.9375 -7.828125l1.5 0l-1.84375 12.484375l-1.734375 0l-1.4375 -5.21875q-0.125 -0.5625 -0.25 -1.125q-0.109375 -0.578125 -0.203125 -1.125l-0.046875 0q-0.125 0.546875 -0.234375 1.125q-0.109375 0.5625 -0.265625 1.125l-1.375 5.21875l-1.703125 0l-1.921875 -12.484375zm12.146851 7.890625q0 -1.15625 0.359375 -2.0625q0.375 -0.90625 1.0 -1.53125q0.640625 -0.625 1.453125 -0.953125q0.828125 -0.328125 1.75 -0.328125q0.90625 0 1.734375 0.328125q0.828125 0.328125 1.453125 0.953125q0.625 0.625 1.0 1.53125q0.375 0.90625 0.375 2.0625q0 1.140625 -0.375 2.046875q-0.375 0.890625 -1.0 1.515625q-0.625 0.609375 -1.453125 0.9375q-0.828125 0.328125 -1.734375 0.328125q-0.921875 0 -1.75 -0.328125q-0.8125 -0.328125 -1.453125 -0.9375q-0.625 -0.625 -1.0 -1.515625q-0.359375 -0.90625 -0.359375 -2.046875zm1.609375 0q0 0.796875 0.203125 1.4375q0.21875 0.640625 0.609375 1.109375q0.390625 0.46875 0.921875 0.734375q0.546875 0.25 1.21875 0.25q0.65625 0 1.203125 -0.25q0.546875 -0.265625 0.9375 -0.734375q0.390625 -0.46875 0.59375 -1.109375q0.203125 -0.640625 0.203125 -1.4375q0 -0.796875 -0.203125 -1.453125q-0.203125 -0.65625 -0.59375 -1.125q-0.390625 -0.484375 -0.9375 -0.734375q-0.546875 -0.265625 -1.203125 -0.265625q-0.671875 0 -1.21875 0.265625q-0.53125 0.25 -0.921875 0.734375q-0.390625 0.46875 -0.609375 1.125q-0.203125 0.65625 -0.203125 1.453125zm11.225037 -4.640625l1.28125 0l0.140625 2.1875l0.046875 0q0.734375 -1.125 1.78125 -1.765625q1.0625 -0.65625 2.34375 -0.65625q0.515625 0 0.953125 0.09375q0.4375 0.078125 0.875 0.296875l-0.359375 1.34375q-0.5 -0.171875 -0.828125 -0.25q-0.328125 -0.078125 -0.890625 -0.078125q-1.03125 0 -2.0 0.609375q-0.953125 0.59375 -1.796875 2.03125l0 5.421875l-1.546875 0l0 -9.234375zm10.428101 -4.296875l1.5625 0l0 9.15625l0.0625 0l4.984375 -4.859375l1.78125 0l-3.6875 3.671875l4.1875 5.5625l-1.75 0l-3.40625 -4.609375l-2.171875 2.09375l0 2.515625l-1.5625 0l0 -13.53125zm10.490662 8.9375q0 -1.140625 0.390625 -2.046875q0.40625 -0.90625 1.0625 -1.53125q0.65625 -0.625 1.5 -0.953125q0.84375 -0.34375 1.734375 -0.34375q0.984375 0 1.765625 0.328125q0.78125 0.3125 1.328125 0.890625q0.546875 0.5625 0.828125 1.359375q0.28125 0.796875 0.28125 1.765625q0 0.234375 -0.015625 0.484375q0 0.234375 -0.046875 0.40625l-7.21875 0q0.015625 0.734375 0.296875 1.328125q0.28125 0.59375 0.734375 1.015625q0.46875 0.40625 1.109375 0.640625q0.640625 0.21875 1.390625 0.21875q0.828125 0 1.5 -0.21875q0.671875 -0.234375 1.3125 -0.625l0.5625 1.015625q-0.6875 0.4375 -1.5625 0.765625q-0.875 0.328125 -2.0 0.328125q-1.015625 0 -1.921875 -0.328125q-0.90625 -0.34375 -1.578125 -0.953125q-0.671875 -0.625 -1.0625 -1.515625q-0.390625 -0.890625 -0.390625 -2.03125zm7.453125 -0.765625q0 -1.390625 -0.734375 -2.125q-0.71875 -0.75 -2.015625 -0.75q-0.5625 0 -1.09375 0.203125q-0.515625 0.1875 -0.9375 0.5625q-0.40625 0.359375 -0.703125 0.890625q-0.28125 0.53125 -0.375 1.21875l5.859375 0zm5.2093506 -3.875l1.28125 0l0.140625 2.1875l0.046875 0q0.734375 -1.125 1.78125 -1.765625q1.0625 -0.65625 2.34375 -0.65625q0.515625 0 0.953125 0.09375q0.4375 0.078125 0.875 0.296875l-0.359375 1.34375q-0.5 -0.171875 -0.828125 -0.25q-0.328125 -0.078125 -0.890625 -0.078125q-1.03125 0 -2.0 0.609375q-0.953125 0.59375 -1.796875 2.03125l0 5.421875l-1.546875 0l0 -9.234375z" fill-rule="nonzero"></path><path fill="#000000" d="m661.3427 282.551l1.609375 0l4.046875 7.875l1.265625 2.546875l0.03125 0q-0.03125 -0.9375 -0.125 -1.953125q-0.078125 -1.015625 -0.078125 -2.0l0 -6.46875l1.5 0l0 12.46875l-1.625 0l-4.046875 -7.859375l-1.25 -2.546875l-0.03125 0q0.03125 0.96875 0.109375 1.953125q0.09375 0.96875 0.09375 1.9375l0 6.515625l-1.5 0l0 -12.46875zm11.224976 5.609375l8.171875 0l0 1.171875l-8.171875 0l0 -1.171875zm11.428162 4.40625q0.296875 0.265625 0.640625 0.53125q0.34375 0.25 0.75 0.4375q0.40625 0.1875 0.90625 0.3125q0.515625 0.109375 1.125 0.109375q0.640625 0 1.203125 -0.203125q0.5625 -0.203125 0.96875 -0.5625q0.421875 -0.359375 0.65625 -0.875q0.25 -0.515625 0.25 -1.140625q0 -1.25 -0.8125 -1.953125q-0.8125 -0.703125 -2.171875 -0.703125q-0.765625 0 -1.296875 0.1875q-0.53125 0.1875 -1.171875 0.5625l-0.84375 -0.53125l0.40625 -5.84375l6.859375 0l0 1.359375l-5.46875 0l-0.328125 3.578125q0.53125 -0.21875 1.03125 -0.34375q0.5 -0.140625 1.203125 -0.140625q0.875 0 1.640625 0.234375q0.765625 0.21875 1.3125 0.6875q0.5625 0.46875 0.890625 1.1875q0.328125 0.703125 0.328125 1.6875q0 0.984375 -0.375 1.75q-0.375 0.75 -1.0 1.28125q-0.625 0.515625 -1.4375 0.796875q-0.796875 0.28125 -1.671875 0.28125q-0.828125 0 -1.484375 -0.15625q-0.640625 -0.140625 -1.171875 -0.359375q-0.515625 -0.234375 -0.953125 -0.53125q-0.421875 -0.296875 -0.765625 -0.609375l0.78125 -1.03125zm15.053101 2.6875q-2.03125 0 -3.203125 -1.640625q-1.15625 -1.65625 -1.15625 -4.6875q0 -3.0625 1.15625 -4.65625q1.171875 -1.59375 3.203125 -1.59375q2.03125 0 3.1875 1.59375q1.15625 1.59375 1.15625 4.65625q0 3.03125 -1.15625 4.6875q-1.15625 1.640625 -3.1875 1.640625zm0 -11.328125q-0.625 0 -1.15625 0.28125q-0.53125 0.28125 -0.921875 0.90625q-0.390625 0.609375 -0.609375 1.5625q-0.203125 0.9375 -0.203125 2.25q0 2.59375 0.796875 3.828125q0.8125 1.234375 2.09375 1.234375q1.265625 0 2.078125 -1.234375q0.8125 -1.234375 0.8125 -3.828125q0 -1.3125 -0.21875 -2.25q-0.203125 -0.953125 -0.59375 -1.5625q-0.390625 -0.625 -0.921875 -0.90625q-0.53125 -0.28125 -1.15625 -0.28125zm0 6.140625q-0.484375 0 -0.84375 -0.328125q-0.34375 -0.34375 -0.34375 -0.953125q0 -0.59375 0.34375 -0.921875q0.359375 -0.328125 0.84375 -0.328125q0.46875 0 0.8125 0.328125q0.359375 0.328125 0.359375 0.921875q0 0.609375 -0.359375 0.953125q-0.34375 0.328125 -0.8125 0.328125zm11.193787 5.1875q-2.03125 0 -3.203125 -1.640625q-1.15625 -1.65625 -1.15625 -4.6875q0 -3.0625 1.15625 -4.65625q1.171875 -1.59375 3.203125 -1.59375q2.03125 0 3.1875 1.59375q1.15625 1.59375 1.15625 4.65625q0 3.03125 -1.15625 4.6875q-1.15625 1.640625 -3.1875 1.640625zm0 -11.328125q-0.625 0 -1.15625 0.28125q-0.53125 0.28125 -0.921875 0.90625q-0.390625 0.609375 -0.609375 1.5625q-0.203125 0.9375 -0.203125 2.25q0 2.59375 0.796875 3.828125q0.8125 1.234375 2.09375 1.234375q1.265625 0 2.078125 -1.234375q0.8125 -1.234375 0.8125 -3.828125q0 -1.3125 -0.21875 -2.25q-0.203125 -0.953125 -0.59375 -1.5625q-0.390625 -0.625 -0.921875 -0.90625q-0.53125 -0.28125 -1.15625 -0.28125zm0 6.140625q-0.484375 0 -0.84375 -0.328125q-0.34375 -0.34375 -0.34375 -0.953125q0 -0.59375 0.34375 -0.921875q0.359375 -0.328125 0.84375 -0.328125q0.46875 0 0.8125 0.328125q0.359375 0.328125 0.359375 0.921875q0 0.609375 -0.359375 0.953125q-0.34375 0.328125 -0.8125 0.328125zm11.193726 5.1875q-2.03125 0 -3.203125 -1.640625q-1.15625 -1.65625 -1.15625 -4.6875q0 -3.0625 1.15625 -4.65625q1.171875 -1.59375 3.203125 -1.59375q2.03125 0 3.1875 1.59375q1.15625 1.59375 1.15625 4.65625q0 3.03125 -1.15625 4.6875q-1.15625 1.640625 -3.1875 1.640625zm0 -11.328125q-0.625 0 -1.15625 0.28125q-0.53125 0.28125 -0.921875 0.90625q-0.390625 0.609375 -0.609375 1.5625q-0.203125 0.9375 -0.203125 2.25q0 2.59375 0.796875 3.828125q0.8125 1.234375 2.09375 1.234375q1.265625 0 2.078125 -1.234375q0.8125 -1.234375 0.8125 -3.828125q0 -1.3125 -0.21875 -2.25q-0.203125 -0.953125 -0.59375 -1.5625q-0.390625 -0.625 -0.921875 -0.90625q-0.53125 -0.28125 -1.15625 -0.28125zm0 6.140625q-0.484375 0 -0.84375 -0.328125q-0.34375 -0.34375 -0.34375 -0.953125q0 -0.59375 0.34375 -0.921875q0.359375 -0.328125 0.84375 -0.328125q0.46875 0 0.8125 0.328125q0.359375 0.328125 0.359375 0.921875q0 0.609375 -0.359375 0.953125q-0.34375 0.328125 -0.8125 0.328125zm9.646912 3.578125q0 -0.71875 0.4375 -1.15625q0.453125 -0.453125 1.109375 -0.453125q0.640625 0 1.078125 0.453125q0.453125 0.4375 0.453125 1.15625q0 0.734375 -0.453125 1.171875q-0.4375 0.4375 -1.078125 0.4375q-0.65625 0 -1.109375 -0.4375q-0.4375 -0.4375 -0.4375 -1.171875zm11.193726 0q0 -0.71875 0.4375 -1.15625q0.453125 -0.453125 1.109375 -0.453125q0.640625 0 1.078125 0.453125q0.453125 0.4375 0.453125 1.15625q0 0.734375 -0.453125 1.171875q-0.4375 0.4375 -1.078125 0.4375q-0.65625 0 -1.109375 -0.4375q-0.4375 -0.4375 -0.4375 -1.171875zm8.615662 -11.09375l1.609375 0l4.046875 7.875l1.265625 2.546875l0.03125 0q-0.03125 -0.9375 -0.125 -1.953125q-0.078125 -1.015625 -0.078125 -2.0l0 -6.46875l1.5 0l0 12.46875l-1.625 0l-4.046875 -7.859375l-1.25 -2.546875l-0.03125 0q0.03125 0.96875 0.109375 1.953125q0.09375 0.96875 0.09375 1.9375l0 6.515625l-1.5 0l0 -12.46875z" fill-rule="nonzero"></path><path fill="#000000" fill-opacity="0.0" d="m410.33334 126.186356c0 18.472443 -17.015747 27.708664 -34.031525 36.944885c-17.015747 9.236221 -34.031494 18.472443 -34.031494 36.944885" fill-rule="nonzero"></path><path stroke="#000000" stroke-width="2.0" stroke-linejoin="round" stroke-linecap="butt" d="m410.33334 126.18635c0 18.47245 -17.015747 27.708672 -34.031494 36.944893c-8.507874 4.618103 -17.015747 9.236206 -23.396667 15.00885c-3.1904602 2.886322 -5.8491516 6.061264 -7.710266 9.669174c-0.465271 0.90197754 -0.8807068 1.8310089 -1.2421265 2.7893372c-0.18069458 0.479187 -0.3479004 0.965683 -0.5010681 1.4597931c-0.07662964 0.24707031 -0.14968872 0.4960327 -0.21920776 0.746933c-0.03479004 0.1254425 -0.06863403 0.2513733 -0.10159302 0.3777771l-0.02279663 0.09022522" fill-rule="evenodd"></path><path fill="#000000" stroke="#000000" stroke-width="2.0" stroke-linecap="butt" d="m343.10812 193.27333l-1.9573975 -2.5072174l1.4769897 6.408127l2.9876099 -5.8582916z" fill-rule="evenodd"></path><path fill="#000000" fill-opacity="0.0" d="m364.52756 150.54855l105.60629 0l0 25.16536l-105.60629 0z" fill-rule="nonzero"></path><path fill="#000000" d="m375.65256 175.23418q0.78125 0.5625 1.671875 0.90625q0.890625 0.34375 2.15625 0.34375q1.25 0 1.859375 -0.421875q0.609375 -0.421875 0.609375 -1.03125q0 -0.53125 -0.65625 -0.9375q-0.65625 -0.421875 -2.34375 -0.84375q-0.734375 -0.171875 -1.375 -0.421875q-0.625 -0.25 -1.109375 -0.578125q-0.46875 -0.328125 -0.75 -0.71875q-0.28125 -0.40625 -0.28125 -0.90625q0 -0.546875 0.234375 -1.03125q0.25 -0.484375 0.734375 -0.828125q0.484375 -0.359375 1.21875 -0.5625q0.734375 -0.203125 1.6875 -0.203125q1.046875 0 2.03125 0.359375q0.984375 0.34375 1.671875 0.828125l-0.765625 1.0q-0.609375 -0.4375 -1.359375 -0.703125q-0.734375 -0.265625 -1.578125 -0.265625q-0.65625 0 -1.09375 0.109375q-0.4375 0.109375 -0.703125 0.296875q-0.265625 0.171875 -0.375 0.421875q-0.109375 0.234375 -0.109375 0.5q0 0.578125 0.765625 0.953125q0.78125 0.359375 2.046875 0.6875q1.875 0.46875 2.78125 1.078125q0.90625 0.609375 0.90625 1.671875q0 0.578125 -0.265625 1.078125q-0.265625 0.484375 -0.796875 0.875q-0.515625 0.375 -1.296875 0.59375q-0.765625 0.21875 -1.75 0.21875q-1.375 0 -2.53125 -0.421875q-1.140625 -0.4375 -1.984375 -1.03125l0.75 -1.015625zm10.771881 -7.0l5.859375 0l0 9.234375l-1.5625 0l0 -7.96875l-4.296875 0l0 -1.265625zm4.90625 -1.90625q-0.546875 0 -0.90625 -0.3125q-0.34375 -0.328125 -0.34375 -0.875q0 -0.546875 0.34375 -0.875q0.359375 -0.34375 0.90625 -0.34375q0.53125 0 0.890625 0.34375q0.359375 0.328125 0.359375 0.875q0 0.546875 -0.359375 0.875q-0.359375 0.3125 -0.890625 0.3125zm5.896881 6.546875q0 -1.140625 0.390625 -2.046875q0.40625 -0.90625 1.0625 -1.53125q0.65625 -0.625 1.5 -0.953125q0.84375 -0.34375 1.734375 -0.34375q0.984375 0 1.765625 0.328125q0.78125 0.3125 1.328125 0.890625q0.546875 0.5625 0.828125 1.359375q0.28125 0.796875 0.28125 1.765625q0 0.234375 -0.015625 0.484375q0 0.234375 -0.046875 0.40625l-7.21875 0q0.015625 0.734375 0.296875 1.328125q0.28125 0.59375 0.734375 1.015625q0.46875 0.40625 1.109375 0.640625q0.640625 0.21875 1.390625 0.21875q0.828125 0 1.5 -0.21875q0.671875 -0.234375 1.3125 -0.625l0.5625 1.015625q-0.6875 0.4375 -1.5625 0.765625q-0.875 0.328125 -2.0 0.328125q-1.015625 0 -1.921875 -0.328125q-0.90625 -0.34375 -1.578125 -0.953125q-0.671875 -0.625 -1.0625 -1.515625q-0.390625 -0.890625 -0.390625 -2.03125zm7.453125 -0.765625q0 -1.390625 -0.734375 -2.125q-0.71875 -0.75 -2.015625 -0.75q-0.5625 0 -1.09375 0.203125q-0.515625 0.1875 -0.9375 0.5625q-0.40625 0.359375 -0.703125 0.890625q-0.28125 0.53125 -0.375 1.21875l5.859375 0zm3.396881 -3.875l1.578125 0l2.125 5.25q0.28125 0.703125 0.53125 1.375q0.265625 0.671875 0.515625 1.34375l0.078125 0q0.25 -0.671875 0.484375 -1.34375q0.234375 -0.671875 0.515625 -1.375l2.140625 -5.25l1.5 0l-3.828125 9.234375l-1.75 0l-3.890625 -9.234375zm11.537506 4.640625q0 -1.140625 0.390625 -2.046875q0.40625 -0.90625 1.0625 -1.53125q0.65625 -0.625 1.5 -0.953125q0.84375 -0.34375 1.734375 -0.34375q0.984375 0 1.765625 0.328125q0.78125 0.3125 1.328125 0.890625q0.546875 0.5625 0.828125 1.359375q0.28125 0.796875 0.28125 1.765625q0 0.234375 -0.015625 0.484375q0 0.234375 -0.046875 0.40625l-7.21875 0q0.015625 0.734375 0.296875 1.328125q0.28125 0.59375 0.734375 1.015625q0.46875 0.40625 1.109375 0.640625q0.640625 0.21875 1.390625 0.21875q0.828125 0 1.5 -0.21875q0.671875 -0.234375 1.3125 -0.625l0.5625 1.015625q-0.6875 0.4375 -1.5625 0.765625q-0.875 0.328125 -2.0 0.328125q-1.015625 0 -1.921875 -0.328125q-0.90625 -0.34375 -1.578125 -0.953125q-0.671875 -0.625 -1.0625 -1.515625q-0.390625 -0.890625 -0.390625 -2.03125zm7.453125 -0.765625q0 -1.390625 -0.734375 -2.125q-0.71875 -0.75 -2.015625 -0.75q-0.5625 0 -1.09375 0.203125q-0.515625 0.1875 -0.9375 0.5625q-0.40625 0.359375 -0.703125 0.890625q-0.28125 0.53125 -0.375 1.21875l5.859375 0z" fill-rule="nonzero"></path><path fill="#000000" fill-opacity="0.0" d="m327.93964 71.162735c-115.44882 0 -230.89764 64.456696 -230.89764 128.91338" fill-rule="nonzero"></path><path stroke="#000000" stroke-width="2.0" stroke-linejoin="round" stroke-linecap="butt" d="m327.93964 71.16273c-57.724426 0 -115.44882 16.114174 -158.74213 40.28544c-21.646652 12.085625 -39.68553 26.185532 -52.31275 41.292572c-6.3136063 7.5535126 -11.2743 15.35881 -14.656586 23.290024c-1.6911392 3.9655914 -2.9876862 7.9626617 -3.8614426 11.975449c-0.21844482 1.0032196 -0.4104538 2.0074005 -0.5756073 3.012329c-0.08257294 0.50245667 -0.15843964 1.0050964 -0.2275238 1.5078888l-0.09262085 0.70895386" fill-rule="evenodd"></path><path fill="#000000" stroke="#000000" stroke-width="2.0" stroke-linecap="butt" d="m97.47098 193.23538l-2.1039886 -2.3855286l1.8579941 6.308197l2.6315231 -6.026657z" fill-rule="evenodd"></path><path fill="#000000" fill-opacity="0.0" d="m116.50394 82.4462l105.60629 0l0 25.165352l-105.60629 0z" fill-rule="nonzero"></path><path fill="#000000" d="m127.62894 107.13182q0.78125 0.5625 1.671875 0.90625q0.890625 0.34375 2.15625 0.34375q1.25 0 1.859375 -0.421875q0.609375 -0.421875 0.609375 -1.03125q0 -0.53125 -0.65625 -0.9375q-0.65625 -0.421875 -2.34375 -0.84375q-0.734375 -0.171875 -1.375 -0.421875q-0.625 -0.25 -1.109375 -0.578125q-0.46875 -0.328125 -0.75 -0.71875q-0.28125 -0.40625 -0.28125 -0.90625q0 -0.546875 0.234375 -1.03125q0.25 -0.484375 0.734375 -0.828125q0.484375 -0.359375 1.21875 -0.5625q0.734375 -0.203125 1.6875 -0.203125q1.046875 0 2.03125 0.359375q0.984375 0.34375 1.671875 0.828125l-0.765625 1.0q-0.609375 -0.4375 -1.359375 -0.703125q-0.734375 -0.265625 -1.578125 -0.265625q-0.65625 0 -1.09375 0.109375q-0.4375 0.109375 -0.703125 0.296875q-0.265625 0.171875 -0.375 0.421875q-0.109375 0.234375 -0.109375 0.5q0 0.578125 0.765625 0.953125q0.78125 0.359375 2.046875 0.6875q1.875 0.46875 2.78125 1.078125q0.90625 0.609375 0.90625 1.671875q0 0.578125 -0.265625 1.078125q-0.265625 0.484375 -0.796875 0.875q-0.515625 0.375 -1.296875 0.59375q-0.765625 0.21875 -1.75 0.21875q-1.375 0 -2.53125 -0.421875q-1.140625 -0.4375 -1.984375 -1.03125l0.75 -1.015625zm10.771881 -7.0l5.859375 0l0 9.234375l-1.5625 0l0 -7.96875l-4.296875 0l0 -1.265625zm4.90625 -1.90625q-0.546875 0 -0.90625 -0.3125q-0.34375 -0.328125 -0.34375 -0.875q0 -0.546875 0.34375 -0.875q0.359375 -0.34375 0.90625 -0.34375q0.53125 0 0.890625 0.34375q0.359375 0.328125 0.359375 0.875q0 0.546875 -0.359375 0.875q-0.359375 0.3125 -0.890625 0.3125zm5.896881 6.546875q0 -1.140625 0.390625 -2.046875q0.40625 -0.90625 1.0625 -1.53125q0.65625 -0.625 1.5 -0.953125q0.84375 -0.34375 1.734375 -0.34375q0.984375 0 1.765625 0.328125q0.78125 0.3125 1.328125 0.890625q0.546875 0.5625 0.828125 1.359375q0.28125 0.796875 0.28125 1.765625q0 0.234375 -0.015625 0.484375q0 0.234375 -0.046875 0.40625l-7.21875 0q0.015625 0.734375 0.296875 1.328125q0.28125 0.59375 0.734375 1.015625q0.46875 0.40625 1.109375 0.640625q0.640625 0.21875 1.390625 0.21875q0.828125 0 1.5 -0.21875q0.671875 -0.234375 1.3125 -0.625l0.5625 1.015625q-0.6875 0.4375 -1.5625 0.765625q-0.875 0.328125 -2.0 0.328125q-1.015625 0 -1.921875 -0.328125q-0.90625 -0.34375 -1.578125 -0.953125q-0.671875 -0.625 -1.0625 -1.515625q-0.390625 -0.890625 -0.390625 -2.03125zm7.453125 -0.765625q0 -1.390625 -0.734375 -2.125q-0.71875 -0.75 -2.015625 -0.75q-0.5625 0 -1.09375 0.203125q-0.515625 0.1875 -0.9375 0.5625q-0.40625 0.359375 -0.703125 0.890625q-0.28125 0.53125 -0.375 1.21875l5.859375 0zm3.396881 -3.875l1.578125 0l2.125 5.25q0.28125 0.703125 0.53125 1.375q0.265625 0.671875 0.515625 1.34375l0.078125 0q0.25 -0.671875 0.484375 -1.34375q0.234375 -0.671875 0.515625 -1.375l2.140625 -5.25l1.5 0l-3.828125 9.234375l-1.75 0l-3.890625 -9.234375zm11.537506 4.640625q0 -1.140625 0.390625 -2.046875q0.40625 -0.90625 1.0625 -1.53125q0.65625 -0.625 1.5 -0.953125q0.84375 -0.34375 1.734375 -0.34375q0.984375 0 1.765625 0.328125q0.78125 0.3125 1.328125 0.890625q0.546875 0.5625 0.828125 1.359375q0.28125 0.796875 0.28125 1.765625q0 0.234375 -0.015625 0.484375q0 0.234375 -0.046875 0.40625l-7.21875 0q0.015625 0.734375 0.296875 1.328125q0.28125 0.59375 0.734375 1.015625q0.46875 0.40625 1.109375 0.640625q0.640625 0.21875 1.390625 0.21875q0.828125 0 1.5 -0.21875q0.671875 -0.234375 1.3125 -0.625l0.5625 1.015625q-0.6875 0.4375 -1.5625 0.765625q-0.875 0.328125 -2.0 0.328125q-1.015625 0 -1.921875 -0.328125q-0.90625 -0.34375 -1.578125 -0.953125q-0.671875 -0.625 -1.0625 -1.515625q-0.390625 -0.890625 -0.390625 -2.03125zm7.453125 -0.765625q0 -1.390625 -0.734375 -2.125q-0.71875 -0.75 -2.015625 -0.75q-0.5625 0 -1.09375 0.203125q-0.515625 0.1875 -0.9375 0.5625q-0.40625 0.359375 -0.703125 0.890625q-0.28125 0.53125 -0.375 1.21875l5.859375 0z" fill-rule="nonzero"></path><path fill="#000000" fill-opacity="0.0" d="m492.72702 71.162735c108.70865 0 217.41733 64.456696 217.41733 128.91338" fill-rule="nonzero"></path><path stroke="#000000" stroke-width="2.0" stroke-linejoin="round" stroke-linecap="butt" d="m492.72702 71.16273c54.35434 0 108.70865 16.114174 149.4744 40.28544c20.382874 12.085625 37.368652 26.185532 49.258667 41.292572c5.9449463 7.5535126 10.616028 15.35881 13.800903 23.290024c1.5923462 3.9655914 2.8132324 7.9626617 3.6359863 11.975449c0.20568848 1.0032196 0.3864746 2.0074005 0.5419922 3.012329c0.07775879 0.50245667 0.14923096 1.0050964 0.2142334 1.5078888l0.08703613 0.707428" fill-rule="evenodd"></path><path fill="#000000" stroke="#000000" stroke-width="2.0" stroke-linecap="butt" d="m709.74023 193.23387l-2.3778687 -2.1126556l2.6096191 6.0361786l1.8809204 -6.3013916z" fill-rule="evenodd"></path><path fill="#000000" fill-opacity="0.0" d="m647.7743 87.94751l105.60626 0l0 25.165352l-105.60626 0z" fill-rule="nonzero"></path><path fill="#000000" d="m658.8993 112.63313q0.78125 0.5625 1.671875 0.90625q0.890625 0.34375 2.15625 0.34375q1.25 0 1.859375 -0.421875q0.609375 -0.421875 0.609375 -1.03125q0 -0.53125 -0.65625 -0.9375q-0.65625 -0.421875 -2.34375 -0.84375q-0.734375 -0.171875 -1.375 -0.421875q-0.625 -0.25 -1.109375 -0.578125q-0.46875 -0.328125 -0.75 -0.71875q-0.28125 -0.40625 -0.28125 -0.90625q0 -0.546875 0.234375 -1.03125q0.25 -0.484375 0.734375 -0.828125q0.484375 -0.359375 1.21875 -0.5625q0.734375 -0.203125 1.6875 -0.203125q1.046875 0 2.03125 0.359375q0.984375 0.34375 1.671875 0.828125l-0.765625 1.0q-0.609375 -0.4375 -1.359375 -0.703125q-0.734375 -0.265625 -1.578125 -0.265625q-0.65625 0 -1.09375 0.109375q-0.4375 0.109375 -0.703125 0.296875q-0.265625 0.171875 -0.375 0.421875q-0.109375 0.234375 -0.109375 0.5q0 0.578125 0.765625 0.953125q0.78125 0.359375 2.046875 0.6875q1.875 0.46875 2.78125 1.078125q0.90625 0.609375 0.90625 1.671875q0 0.578125 -0.265625 1.078125q-0.265625 0.484375 -0.796875 0.875q-0.515625 0.375 -1.296875 0.59375q-0.765625 0.21875 -1.75 0.21875q-1.375 0 -2.53125 -0.421875q-1.140625 -0.4375 -1.984375 -1.03125l0.75 -1.015625zm10.771851 -7.0l5.859375 0l0 9.234375l-1.5625 0l0 -7.96875l-4.296875 0l0 -1.265625zm4.90625 -1.90625q-0.546875 0 -0.90625 -0.3125q-0.34375 -0.328125 -0.34375 -0.875q0 -0.546875 0.34375 -0.875q0.359375 -0.34375 0.90625 -0.34375q0.53125 0 0.890625 0.34375q0.359375 0.328125 0.359375 0.875q0 0.546875 -0.359375 0.875q-0.359375 0.3125 -0.890625 0.3125zm5.8969116 6.546875q0 -1.140625 0.390625 -2.046875q0.40625 -0.90625 1.0625 -1.53125q0.65625 -0.625 1.5 -0.953125q0.84375 -0.34375 1.734375 -0.34375q0.984375 0 1.765625 0.328125q0.78125 0.3125 1.328125 0.890625q0.546875 0.5625 0.828125 1.359375q0.28125 0.796875 0.28125 1.765625q0 0.234375 -0.015625 0.484375q0 0.234375 -0.046875 0.40625l-7.21875 0q0.015625 0.734375 0.296875 1.328125q0.28125 0.59375 0.734375 1.015625q0.46875 0.40625 1.109375 0.640625q0.640625 0.21875 1.390625 0.21875q0.828125 0 1.5 -0.21875q0.671875 -0.234375 1.3125 -0.625l0.5625 1.015625q-0.6875 0.4375 -1.5625 0.765625q-0.875 0.328125 -2.0 0.328125q-1.015625 0 -1.921875 -0.328125q-0.90625 -0.34375 -1.578125 -0.953125q-0.671875 -0.625 -1.0625 -1.515625q-0.390625 -0.890625 -0.390625 -2.03125zm7.453125 -0.765625q0 -1.390625 -0.734375 -2.125q-0.71875 -0.75 -2.015625 -0.75q-0.5625 0 -1.09375 0.203125q-0.515625 0.1875 -0.9375 0.5625q-0.40625 0.359375 -0.703125 0.890625q-0.28125 0.53125 -0.375 1.21875l5.859375 0zm3.3968506 -3.875l1.578125 0l2.125 5.25q0.28125 0.703125 0.53125 1.375q0.265625 0.671875 0.515625 1.34375l0.078125 0q0.25 -0.671875 0.484375 -1.34375q0.234375 -0.671875 0.515625 -1.375l2.140625 -5.25l1.5 0l-3.828125 9.234375l-1.75 0l-3.890625 -9.234375zm11.537537 4.640625q0 -1.140625 0.390625 -2.046875q0.40625 -0.90625 1.0625 -1.53125q0.65625 -0.625 1.5 -0.953125q0.84375 -0.34375 1.734375 -0.34375q0.984375 0 1.765625 0.328125q0.78125 0.3125 1.328125 0.890625q0.546875 0.5625 0.828125 1.359375q0.28125 0.796875 0.28125 1.765625q0 0.234375 -0.015625 0.484375q0 0.234375 -0.046875 0.40625l-7.21875 0q0.015625 0.734375 0.296875 1.328125q0.28125 0.59375 0.734375 1.015625q0.46875 0.40625 1.109375 0.640625q0.640625 0.21875 1.390625 0.21875q0.828125 0 1.5 -0.21875q0.671875 -0.234375 1.3125 -0.625l0.5625 1.015625q-0.6875 0.4375 -1.5625 0.765625q-0.875 0.328125 -2.0 0.328125q-1.015625 0 -1.921875 -0.328125q-0.90625 -0.34375 -1.578125 -0.953125q-0.671875 -0.625 -1.0625 -1.515625q-0.390625 -0.890625 -0.390625 -2.03125zm7.453125 -0.765625q0 -1.390625 -0.734375 -2.125q-0.71875 -0.75 -2.015625 -0.75q-0.5625 0 -1.09375 0.203125q-0.515625 0.1875 -0.9375 0.5625q-0.40625 0.359375 -0.703125 0.890625q-0.28125 0.53125 -0.375 1.21875l5.859375 0z" fill-rule="nonzero"></path><path fill="#000000" fill-opacity="0.0" d="m466.14697 262.3596l130.86615 0" fill-rule="nonzero"></path><path stroke="#000000" stroke-width="3.0" stroke-linejoin="round" stroke-linecap="butt" stroke-dasharray="3.0,9.0" d="m466.14697 262.3596l130.86615 0" fill-rule="nonzero"></path><path fill="#000000" fill-opacity="0.0" d="m35.204723 21.931759l38.96063 0" fill-rule="nonzero"></path><path stroke="#000000" stroke-width="2.0" stroke-linejoin="round" stroke-linecap="butt" d="m35.204723 21.931759l26.960632 0" fill-rule="evenodd"></path><path fill="#000000" stroke="#000000" stroke-width="2.0" stroke-linecap="butt" d="m62.165356 25.235224l9.076191 -3.303465l-9.076191 -3.303465z" fill-rule="evenodd"></path><path fill="#000000" fill-opacity="0.0" d="m72.055115 15.317585l183.08662 0l0 13.228346l-183.08662 0z" fill-rule="nonzero"></path><path fill="#000000" d="m82.023865 24.936132q0 -0.484375 0.234375 -0.84375q0.234375 -0.375 0.734375 -0.640625q0.515625 -0.265625 1.3125 -0.421875q0.8125 -0.171875 1.953125 -0.28125q-0.015625 -0.296875 -0.109375 -0.5625q-0.078125 -0.265625 -0.265625 -0.453125q-0.171875 -0.203125 -0.46875 -0.3125q-0.296875 -0.125 -0.71875 -0.125q-0.5625 0 -1.09375 0.21875q-0.53125 0.21875 -0.9375 0.46875l-0.390625 -0.671875q0.21875 -0.140625 0.515625 -0.28125q0.296875 -0.15625 0.625 -0.265625q0.328125 -0.125 0.703125 -0.203125q0.375 -0.078125 0.75 -0.078125q1.203125 0 1.78125 0.65625q0.59375 0.640625 0.59375 1.734375l0 3.578125l-0.8125 0l-0.078125 -0.796875l-0.046875 0q-0.484375 0.390625 -1.078125 0.671875q-0.59375 0.265625 -1.21875 0.265625q-0.40625 0 -0.765625 -0.109375q-0.359375 -0.109375 -0.640625 -0.3125q-0.265625 -0.21875 -0.421875 -0.515625q-0.15625 -0.3125 -0.15625 -0.71875zm0.96875 -0.0625q0 0.25 0.09375 0.421875q0.109375 0.171875 0.28125 0.296875q0.1875 0.109375 0.421875 0.171875q0.234375 0.046875 0.484375 0.046875q0.5 0 0.984375 -0.21875q0.484375 -0.234375 1.0 -0.65625l0 -1.53125q-0.9375 0.078125 -1.578125 0.203125q-0.625 0.125 -1.0 0.3125q-0.375 0.1875 -0.53125 0.421875q-0.15625 0.234375 -0.15625 0.53125zm6.606308 0.15625q0.5 0.359375 1.0625 0.578125q0.5625 0.21875 1.34375 0.21875q0.796875 0 1.171875 -0.265625q0.390625 -0.265625 0.390625 -0.640625q0 -0.34375 -0.421875 -0.609375q-0.40625 -0.265625 -1.46875 -0.515625q-0.453125 -0.109375 -0.859375 -0.265625q-0.40625 -0.15625 -0.703125 -0.359375q-0.296875 -0.21875 -0.484375 -0.46875q-0.171875 -0.265625 -0.171875 -0.5625q0 -0.359375 0.15625 -0.65625q0.15625 -0.3125 0.453125 -0.53125q0.3125 -0.21875 0.765625 -0.34375q0.46875 -0.125 1.0625 -0.125q0.671875 0 1.296875 0.21875q0.625 0.21875 1.046875 0.515625l-0.46875 0.640625q-0.390625 -0.28125 -0.859375 -0.4375q-0.46875 -0.171875 -1.015625 -0.171875q-0.40625 0 -0.6875 0.0625q-0.265625 0.0625 -0.4375 0.1875q-0.15625 0.109375 -0.234375 0.265625q-0.078125 0.15625 -0.078125 0.3125q0 0.359375 0.484375 0.59375q0.5 0.234375 1.296875 0.4375q1.1875 0.3125 1.75 0.703125q0.578125 0.375 0.578125 1.046875q0 0.359375 -0.171875 0.671875q-0.171875 0.3125 -0.5 0.5625q-0.328125 0.234375 -0.8125 0.359375q-0.484375 0.140625 -1.109375 0.140625q-0.859375 0 -1.59375 -0.265625q-0.71875 -0.265625 -1.265625 -0.640625l0.484375 -0.65625zm6.871933 3.03125q0.109375 0.03125 0.25 0.046875q0.140625 0.03125 0.265625 0.03125q0.609375 0 1.0 -0.359375q0.390625 -0.34375 0.59375 -0.890625l0.1875 -0.421875l-2.71875 -5.84375l0.984375 0l1.4375 3.21875q0.171875 0.390625 0.34375 0.84375q0.1875 0.4375 0.375 0.859375l0.046875 0q0.15625 -0.421875 0.3125 -0.859375q0.171875 -0.4375 0.3125 -0.84375l1.265625 -3.21875l0.9375 0l-2.5625 6.3125q-0.171875 0.421875 -0.390625 0.796875q-0.21875 0.375 -0.515625 0.640625q-0.296875 0.28125 -0.6875 0.4375q-0.390625 0.15625 -0.875 0.15625q-0.4375 0 -0.78125 -0.125l0.21875 -0.78125l0 0zm7.293808 -7.4375l0.828125 0l0.078125 0.984375l0.046875 0q0.453125 -0.484375 0.984375 -0.796875q0.53125 -0.328125 1.21875 -0.328125q1.03125 0 1.515625 0.59375q0.5 0.59375 0.5 1.75l0 3.625l-0.984375 0l0 -3.484375q0 -0.828125 -0.3125 -1.234375q-0.3125 -0.40625 -1.03125 -0.40625q-0.265625 0 -0.5 0.078125q-0.21875 0.0625 -0.4375 0.1875q-0.203125 0.125 -0.4375 0.328125q-0.21875 0.203125 -0.484375 0.46875l0 4.0625l-0.984375 0l0 -5.828125zm7.043808 2.921875q0 -0.734375 0.25 -1.296875q0.265625 -0.578125 0.703125 -0.96875q0.453125 -0.390625 1.046875 -0.59375q0.59375 -0.203125 1.265625 -0.203125q0.71875 0 1.234375 0.25q0.515625 0.25 0.890625 0.59375l-0.5 0.640625q-0.359375 -0.3125 -0.75 -0.484375q-0.390625 -0.1875 -0.84375 -0.1875q-0.5 0 -0.921875 0.15625q-0.421875 0.15625 -0.71875 0.46875q-0.296875 0.296875 -0.46875 0.71875q-0.15625 0.40625 -0.15625 0.90625q0 0.5 0.15625 0.921875q0.15625 0.40625 0.453125 0.703125q0.296875 0.28125 0.703125 0.453125q0.421875 0.15625 0.921875 0.15625q0.546875 0 0.984375 -0.203125q0.453125 -0.21875 0.828125 -0.53125l0.4375 0.640625q-0.484375 0.421875 -1.078125 0.671875q-0.59375 0.234375 -1.234375 0.234375q-0.6875 0 -1.28125 -0.203125q-0.578125 -0.203125 -1.015625 -0.59375q-0.421875 -0.390625 -0.671875 -0.953125q-0.234375 -0.578125 -0.234375 -1.296875zm7.356308 -5.640625l0.984375 0l0 2.328125l-0.046875 1.375q0.46875 -0.484375 1.0 -0.796875q0.53125 -0.328125 1.21875 -0.328125q1.03125 0 1.515625 0.59375q0.5 0.59375 0.5 1.75l0 3.625l-0.984375 0l0 -3.484375q0 -0.828125 -0.3125 -1.234375q-0.3125 -0.40625 -1.03125 -0.40625q-0.265625 0 -0.5 0.078125q-0.21875 0.0625 -0.4375 0.1875q-0.203125 0.125 -0.4375 0.328125q-0.21875 0.203125 -0.484375 0.46875l0 4.0625l-0.984375 0l0 -8.546875zm7.840683 2.71875l0.8125 0l0.09375 1.375l0.03125 0q0.453125 -0.703125 1.109375 -1.109375q0.671875 -0.40625 1.5 -0.40625q0.3125 0 0.59375 0.046875q0.28125 0.046875 0.546875 0.1875l-0.21875 0.84375q-0.3125 -0.09375 -0.53125 -0.140625q-0.203125 -0.0625 -0.546875 -0.0625q-0.671875 0 -1.28125 0.390625q-0.59375 0.375 -1.125 1.28125l0 3.421875l-0.984375 0l0 -5.828125zm6.168808 2.921875q0 -0.734375 0.234375 -1.296875q0.234375 -0.578125 0.625 -0.96875q0.40625 -0.390625 0.921875 -0.59375q0.53125 -0.203125 1.09375 -0.203125q0.578125 0 1.09375 0.203125q0.53125 0.203125 0.921875 0.59375q0.40625 0.390625 0.640625 0.96875q0.234375 0.5625 0.234375 1.296875q0 0.71875 -0.234375 1.296875q-0.234375 0.5625 -0.640625 0.953125q-0.390625 0.390625 -0.921875 0.59375q-0.515625 0.203125 -1.09375 0.203125q-0.5625 0 -1.09375 -0.203125q-0.515625 -0.203125 -0.921875 -0.59375q-0.390625 -0.390625 -0.625 -0.953125q-0.234375 -0.578125 -0.234375 -1.296875zm1.015625 0q0 0.5 0.125 0.921875q0.140625 0.40625 0.390625 0.703125q0.25 0.28125 0.59375 0.453125q0.34375 0.15625 0.75 0.15625q0.421875 0 0.765625 -0.15625q0.34375 -0.171875 0.59375 -0.453125q0.25 -0.296875 0.375 -0.703125q0.125 -0.421875 0.125 -0.921875q0 -0.5 -0.125 -0.90625q-0.125 -0.421875 -0.375 -0.71875q-0.25 -0.3125 -0.59375 -0.46875q-0.34375 -0.15625 -0.765625 -0.15625q-0.40625 0 -0.75 0.15625q-0.34375 0.15625 -0.59375 0.46875q-0.25 0.296875 -0.390625 0.71875q-0.125 0.40625 -0.125 0.90625zm6.575058 -2.921875l0.828125 0l0.078125 0.984375l0.046875 0q0.453125 -0.484375 0.984375 -0.796875q0.53125 -0.328125 1.21875 -0.328125q1.03125 0 1.515625 0.59375q0.5 0.59375 0.5 1.75l0 3.625l-0.984375 0l0 -3.484375q0 -0.828125 -0.3125 -1.234375q-0.3125 -0.40625 -1.03125 -0.40625q-0.265625 0 -0.5 0.078125q-0.21875 0.0625 -0.4375 0.1875q-0.203125 0.125 -0.4375 0.328125q-0.21875 0.203125 -0.484375 0.46875l0 4.0625l-0.984375 0l0 -5.828125zm6.809433 2.921875q0 -0.734375 0.234375 -1.296875q0.234375 -0.578125 0.625 -0.96875q0.40625 -0.390625 0.921875 -0.59375q0.53125 -0.203125 1.09375 -0.203125q0.578125 0 1.09375 0.203125q0.53125 0.203125 0.921875 0.59375q0.40625 0.390625 0.640625 0.96875q0.234375 0.5625 0.234375 1.296875q0 0.71875 -0.234375 1.296875q-0.234375 0.5625 -0.640625 0.953125q-0.390625 0.390625 -0.921875 0.59375q-0.515625 0.203125 -1.09375 0.203125q-0.5625 0 -1.09375 -0.203125q-0.515625 -0.203125 -0.921875 -0.59375q-0.390625 -0.390625 -0.625 -0.953125q-0.234375 -0.578125 -0.234375 -1.296875zm1.015625 0q0 0.5 0.125 0.921875q0.140625 0.40625 0.390625 0.703125q0.25 0.28125 0.59375 0.453125q0.34375 0.15625 0.75 0.15625q0.421875 0 0.765625 -0.15625q0.34375 -0.171875 0.59375 -0.453125q0.25 -0.296875 0.375 -0.703125q0.125 -0.421875 0.125 -0.921875q0 -0.5 -0.125 -0.90625q-0.125 -0.421875 -0.375 -0.71875q-0.25 -0.3125 -0.59375 -0.46875q-0.34375 -0.15625 -0.765625 -0.15625q-0.40625 0 -0.75 0.15625q-0.34375 0.15625 -0.59375 0.46875q-0.25 0.296875 -0.390625 0.71875q-0.125 0.40625 -0.125 0.90625zm11.528183 2.90625l-0.8125 0l-0.078125 -1.015625l-0.046875 0q-0.4375 0.515625 -0.96875 0.84375q-0.515625 0.3125 -1.203125 0.3125q-1.0625 0 -1.546875 -0.59375q-0.484375 -0.59375 -0.484375 -1.75l0 -3.625l1.0 0l0 3.484375q0 0.828125 0.296875 1.234375q0.3125 0.40625 1.046875 0.40625q0.5 0 0.90625 -0.25q0.40625 -0.265625 0.90625 -0.828125l0 -4.046875l0.984375 0l0 5.828125zm2.481308 -1.421875q0.5 0.359375 1.0625 0.578125q0.5625 0.21875 1.34375 0.21875q0.796875 0 1.171875 -0.265625q0.390625 -0.265625 0.390625 -0.640625q0 -0.34375 -0.421875 -0.609375q-0.40625 -0.265625 -1.46875 -0.515625q-0.453125 -0.109375 -0.859375 -0.265625q-0.40625 -0.15625 -0.703125 -0.359375q-0.296875 -0.21875 -0.484375 -0.46875q-0.171875 -0.265625 -0.171875 -0.5625q0 -0.359375 0.15625 -0.65625q0.15625 -0.3125 0.453125 -0.53125q0.3125 -0.21875 0.765625 -0.34375q0.46875 -0.125 1.0625 -0.125q0.671875 0 1.296875 0.21875q0.625 0.21875 1.046875 0.515625l-0.46875 0.640625q-0.390625 -0.28125 -0.859375 -0.4375q-0.46875 -0.171875 -1.015625 -0.171875q-0.40625 0 -0.6875 0.0625q-0.265625 0.0625 -0.4375 0.1875q-0.15625 0.109375 -0.234375 0.265625q-0.078125 0.15625 -0.078125 0.3125q0 0.359375 0.484375 0.59375q0.5 0.234375 1.296875 0.4375q1.1875 0.3125 1.75 0.703125q0.578125 0.375 0.578125 1.046875q0 0.359375 -0.171875 0.671875q-0.171875 0.3125 -0.5 0.5625q-0.328125 0.234375 -0.8125 0.359375q-0.484375 0.140625 -1.109375 0.140625q-0.859375 0 -1.59375 -0.265625q-0.71875 -0.265625 -1.265625 -0.640625l0.484375 -0.65625zm13.775116 -4.40625l0.765625 0l0.09375 0.765625l0.03125 0q0.21875 -0.40625 0.5 -0.65625q0.296875 -0.25 0.8125 -0.25q0.875 0 1.09375 1.0q0.265625 -0.453125 0.578125 -0.71875q0.3125 -0.28125 0.8125 -0.28125q0.609375 0 0.9375 0.46875q0.328125 0.453125 0.328125 1.328125l0 4.171875l-0.953125 0l0 -4.09375q0 -1.03125 -0.625 -1.03125q-0.3125 0 -0.546875 0.21875q-0.234375 0.21875 -0.453125 0.6875l0 4.21875l-0.796875 0l0 -4.09375q0 -1.03125 -0.65625 -1.03125q-0.3125 0 -0.53125 0.21875q-0.21875 0.21875 -0.4375 0.6875l0 4.21875l-0.953125 0l0 -5.828125zm7.309433 2.921875q0 -0.71875 0.25 -1.28125q0.25 -0.578125 0.65625 -0.96875q0.421875 -0.40625 0.953125 -0.609375q0.546875 -0.203125 1.109375 -0.203125q0.625 0 1.109375 0.203125q0.5 0.1875 0.828125 0.546875q0.34375 0.359375 0.515625 0.859375q0.1875 0.5 0.1875 1.125q0 0.15625 0 0.3125q0 0.140625 -0.03125 0.25l-4.5625 0q0.015625 0.46875 0.1875 0.84375q0.171875 0.359375 0.46875 0.625q0.296875 0.265625 0.6875 0.421875q0.40625 0.140625 0.890625 0.140625q0.515625 0 0.9375 -0.140625q0.4375 -0.15625 0.84375 -0.40625l0.34375 0.640625q-0.4375 0.28125 -0.984375 0.484375q-0.546875 0.203125 -1.265625 0.203125q-0.640625 0 -1.21875 -0.203125q-0.5625 -0.21875 -1.0 -0.609375q-0.421875 -0.390625 -0.671875 -0.953125q-0.234375 -0.5625 -0.234375 -1.28125zm4.703125 -0.484375q0 -0.875 -0.453125 -1.34375q-0.453125 -0.46875 -1.28125 -0.46875q-0.359375 0 -0.6875 0.125q-0.328125 0.125 -0.59375 0.359375q-0.265625 0.234375 -0.453125 0.578125q-0.171875 0.328125 -0.21875 0.75l3.6875 0zm3.012558 1.96875q0.5 0.359375 1.0625 0.578125q0.5625 0.21875 1.34375 0.21875q0.796875 0 1.171875 -0.265625q0.390625 -0.265625 0.390625 -0.640625q0 -0.34375 -0.421875 -0.609375q-0.40625 -0.265625 -1.46875 -0.515625q-0.453125 -0.109375 -0.859375 -0.265625q-0.40625 -0.15625 -0.703125 -0.359375q-0.296875 -0.21875 -0.484375 -0.46875q-0.171875 -0.265625 -0.171875 -0.5625q0 -0.359375 0.15625 -0.65625q0.15625 -0.3125 0.453125 -0.53125q0.3125 -0.21875 0.765625 -0.34375q0.46875 -0.125 1.0625 -0.125q0.671875 0 1.296875 0.21875q0.625 0.21875 1.046875 0.515625l-0.46875 0.640625q-0.390625 -0.28125 -0.859375 -0.4375q-0.46875 -0.171875 -1.015625 -0.171875q-0.40625 0 -0.6875 0.0625q-0.265625 0.0625 -0.4375 0.1875q-0.15625 0.109375 -0.234375 0.265625q-0.078125 0.15625 -0.078125 0.3125q0 0.359375 0.484375 0.59375q0.5 0.234375 1.296875 0.4375q1.1875 0.3125 1.75 0.703125q0.578125 0.375 0.578125 1.046875q0 0.359375 -0.171875 0.671875q-0.171875 0.3125 -0.5 0.5625q-0.328125 0.234375 -0.8125 0.359375q-0.484375 0.140625 -1.109375 0.140625q-0.859375 0 -1.59375 -0.265625q-0.71875 -0.265625 -1.265625 -0.640625l0.484375 -0.65625zm7.200058 0q0.5 0.359375 1.0625 0.578125q0.5625 0.21875 1.34375 0.21875q0.796875 0 1.171875 -0.265625q0.390625 -0.265625 0.390625 -0.640625q0 -0.34375 -0.421875 -0.609375q-0.40625 -0.265625 -1.46875 -0.515625q-0.453125 -0.109375 -0.859375 -0.265625q-0.40625 -0.15625 -0.703125 -0.359375q-0.296875 -0.21875 -0.484375 -0.46875q-0.171875 -0.265625 -0.171875 -0.5625q0 -0.359375 0.15625 -0.65625q0.15625 -0.3125 0.453125 -0.53125q0.3125 -0.21875 0.765625 -0.34375q0.46875 -0.125 1.0625 -0.125q0.671875 0 1.296875 0.21875q0.625 0.21875 1.046875 0.515625l-0.46875 0.640625q-0.390625 -0.28125 -0.859375 -0.4375q-0.46875 -0.171875 -1.015625 -0.171875q-0.40625 0 -0.6875 0.0625q-0.265625 0.0625 -0.4375 0.1875q-0.15625 0.109375 -0.234375 0.265625q-0.078125 0.15625 -0.078125 0.3125q0 0.359375 0.484375 0.59375q0.5 0.234375 1.296875 0.4375q1.1875 0.3125 1.75 0.703125q0.578125 0.375 0.578125 1.046875q0 0.359375 -0.171875 0.671875q-0.171875 0.3125 -0.5 0.5625q-0.328125 0.234375 -0.8125 0.359375q-0.484375 0.140625 -1.109375 0.140625q-0.859375 0 -1.59375 -0.265625q-0.71875 -0.265625 -1.265625 -0.640625l0.484375 -0.65625zm6.825058 -0.09375q0 -0.484375 0.234375 -0.84375q0.234375 -0.375 0.734375 -0.640625q0.515625 -0.265625 1.3125 -0.421875q0.8125 -0.171875 1.953125 -0.28125q-0.015625 -0.296875 -0.109375 -0.5625q-0.078125 -0.265625 -0.265625 -0.453125q-0.171875 -0.203125 -0.46875 -0.3125q-0.296875 -0.125 -0.71875 -0.125q-0.5625 0 -1.09375 0.21875q-0.53125 0.21875 -0.9375 0.46875l-0.390625 -0.671875q0.21875 -0.140625 0.515625 -0.28125q0.296875 -0.15625 0.625 -0.265625q0.328125 -0.125 0.703125 -0.203125q0.375 -0.078125 0.75 -0.078125q1.203125 0 1.78125 0.65625q0.59375 0.640625 0.59375 1.734375l0 3.578125l-0.8125 0l-0.078125 -0.796875l-0.046875 0q-0.484375 0.390625 -1.078125 0.671875q-0.59375 0.265625 -1.21875 0.265625q-0.40625 0 -0.765625 -0.109375q-0.359375 -0.109375 -0.640625 -0.3125q-0.265625 -0.21875 -0.421875 -0.515625q-0.15625 -0.3125 -0.15625 -0.71875zm0.96875 -0.0625q0 0.25 0.09375 0.421875q0.109375 0.171875 0.28125 0.296875q0.1875 0.109375 0.421875 0.171875q0.234375 0.046875 0.484375 0.046875q0.5 0 0.984375 -0.21875q0.484375 -0.234375 1.0 -0.65625l0 -1.53125q-0.9375 0.078125 -1.578125 0.203125q-0.625 0.125 -1.0 0.3125q-0.375 0.1875 -0.53125 0.421875q-0.15625 0.234375 -0.15625 0.53125zm6.981308 2.546875q0 0.453125 0.484375 0.734375q0.484375 0.296875 1.421875 0.296875q0.5 0 0.90625 -0.109375q0.40625 -0.09375 0.6875 -0.265625q0.296875 -0.15625 0.4375 -0.375q0.15625 -0.21875 0.15625 -0.453125q0 -0.40625 -0.328125 -0.5625q-0.328125 -0.140625 -1.0 -0.140625l-1.140625 0q-0.25 0 -0.46875 -0.015625q-0.21875 -0.015625 -0.421875 -0.078125q-0.40625 0.234375 -0.578125 0.46875q-0.15625 0.25 -0.15625 0.5zm-0.859375 0.09375q0 -0.34375 0.25 -0.6875q0.25 -0.328125 0.71875 -0.609375l0 -0.046875q-0.25 -0.125 -0.4375 -0.34375q-0.171875 -0.234375 -0.171875 -0.609375q0 -0.28125 0.171875 -0.5625q0.1875 -0.296875 0.53125 -0.53125l0 -0.046875q-0.296875 -0.234375 -0.515625 -0.609375q-0.203125 -0.375 -0.203125 -0.90625q0 -0.484375 0.1875 -0.859375q0.1875 -0.390625 0.5 -0.65625q0.3125 -0.265625 0.71875 -0.40625q0.421875 -0.15625 0.875 -0.15625q0.484375 0 0.875 0.140625l2.40625 0l0 0.75l-1.5625 0q0.203125 0.21875 0.375 0.53125q0.171875 0.3125 0.171875 0.6875q0 0.46875 -0.171875 0.84375q-0.171875 0.375 -0.484375 0.640625q-0.3125 0.25 -0.734375 0.390625q-0.40625 0.140625 -0.875 0.140625q-0.21875 0 -0.484375 -0.046875q-0.25 -0.0625 -0.484375 -0.171875q-0.46875 0.28125 -0.46875 0.671875q0 0.34375 0.3125 0.515625q0.328125 0.15625 0.90625 0.15625l1.3125 0q1.125 0 1.671875 0.3125q0.546875 0.3125 0.546875 1.046875q0 0.421875 -0.234375 0.78125q-0.21875 0.375 -0.640625 0.65625q-0.421875 0.28125 -1.03125 0.4375q-0.59375 0.171875 -1.34375 0.171875q-1.28125 0 -1.984375 -0.421875q-0.703125 -0.421875 -0.703125 -1.203125zm2.625 -3.578125q0.578125 0 0.96875 -0.359375q0.390625 -0.375 0.390625 -1.015625q0 -0.296875 -0.109375 -0.546875q-0.109375 -0.25 -0.296875 -0.421875q-0.171875 -0.1875 -0.421875 -0.28125q-0.25 -0.109375 -0.53125 -0.109375q-0.265625 0 -0.515625 0.109375q-0.25 0.09375 -0.4375 0.28125q-0.171875 0.171875 -0.28125 0.421875q-0.109375 0.25 -0.109375 0.546875q0 0.640625 0.390625 1.015625q0.40625 0.359375 0.953125 0.359375zm4.543808 -0.390625q0 -0.71875 0.25 -1.28125q0.25 -0.578125 0.65625 -0.96875q0.421875 -0.40625 0.953125 -0.609375q0.546875 -0.203125 1.109375 -0.203125q0.625 0 1.109375 0.203125q0.5 0.1875 0.828125 0.546875q0.34375 0.359375 0.515625 0.859375q0.1875 0.5 0.1875 1.125q0 0.15625 0 0.3125q0 0.140625 -0.03125 0.25l-4.5625 0q0.015625 0.46875 0.1875 0.84375q0.171875 0.359375 0.46875 0.625q0.296875 0.265625 0.6875 0.421875q0.40625 0.140625 0.890625 0.140625q0.515625 0 0.9375 -0.140625q0.4375 -0.15625 0.84375 -0.40625l0.34375 0.640625q-0.4375 0.28125 -0.984375 0.484375q-0.546875 0.203125 -1.265625 0.203125q-0.640625 0 -1.21875 -0.203125q-0.5625 -0.21875 -1.0 -0.609375q-0.421875 -0.390625 -0.671875 -0.953125q-0.234375 -0.5625 -0.234375 -1.28125zm4.703125 -0.484375q0 -0.875 -0.453125 -1.34375q-0.453125 -0.46875 -1.28125 -0.46875q-0.359375 0 -0.6875 0.125q-0.328125 0.125 -0.59375 0.359375q-0.265625 0.234375 -0.453125 0.578125q-0.171875 0.328125 -0.21875 0.75l3.6875 0z" fill-rule="nonzero"></path></g></svg>

